<?xml version="1.0" encoding="UTF-8"?>
<svg width="1e3" height="1e3" version="1.1" viewBox="0 0 264.6 264.6" xmlns="http://www.w3.org/2000/svg">
  <defs>
    <filter id="filter7525" style="color-interpolation-filters:sRGB">
      <feTurbulence baseFrequency="1" numOctaves="3" result="result0" type="fractalNoise"/>
      <feColorMatrix result="result4" type="saturate" values="0"/>
      <feComposite in="SourceGraphic" in2="result4" k1="1.25" k2="0.5" k3="0.5" operator="arithmetic" result="result2"/>
      <feBlend in="result2" in2="SourceGraphic" result="result5"/>
      <feComposite in="result5" in2="SourceGraphic" operator="in" result="result3"/>
    </filter>
  </defs>
  <rect x="6.714e-6" y="6.714e-6" width="264.6" height="264.6" style="fill:#9cb271"/>
  <rect x="6.714e-6" y="6.714e-6" width="264.6" height="264.6" style="fill-opacity:.2525;fill:#99a87b;filter:url(#filter7525)"/>
  <g transform="matrix(.6861 0 0 .6861 41.53 41.53)" style="stroke-width:1.458">
    <path d="m25.27 206.9 2e-6 -131.9 210.5-26.68 3.537 3.004-1e-5 132-46.56 5.882 21.74 4.177 0.1976 0.2767-0.1976 2.964-4.684 2.826-39.84-7.45-78.89 9.94-14.51 14.09-0.6126 0.2569-8.974-1.081-0.3146-0.4601 0.07905-2.569 8.656-8.261-45.95 6.028-0.9288-0.1186z" style="fill:#858a7e"/>
    <path d="m41.85 194 0.1186-104.4 183.3-23.06-0.09881 104.3z" style="fill:#d4dbc8"/>
    <g transform="matrix(.09935 0 0 -.09935 148.2 122.1)" style="stroke-width:1.941;stroke:#5e6158">
      <path d="m0 0v220.2m-19 11v-230.5m168.5-87v220.3m-19.1 11v-230.6m-544.3 228.1 312.4-180.3m14.6 13.6-312.4 180.3m-14.6-356.5 312.4-180.4m14.6 13.6-312.4 180.3m286.9 136.2-281.8 162.7m-4.4-19.4 281.8-162.7m4.4-253-281.8 162.7m-4.4-19.4 281.8-162.7m49.9 11.2v219.5m-19 5.9v-219.6m-339.2 200.9v219.6m-19 5.8v-219.5m-25.5 240.1v-231.3m19.1 5.9v231.3m400.2-247.9v-231.3m19.1 5.9v231.2m-364.8-202.7 143.5 7.3m-1.8 17-143.5-7.2m217.6-47.5-12.5-82.8m21.5-4.7 12.5 82.8m153.2 344.8 0.2-0.1h0.6l0.6 0.4 0.6 0.6 0.2 0.4m-2.2-1.3v231.2m2.2-229.9v228.7m0 0-0.4 0.2-0.3 0.2-0.3 0.1-0.2 0.2-0.3 0.1-0.3 0.2-0.4 0.2m0-231.2-13.1 7.5m0 0v231.3m12.6-235.6-0.1-0.4-0.2-0.2-0.3-0.1-0.3 0.1-0.4 0.3-0.3 0.4-0.2 0.5-0.1 0.5 0.1 0.4 0.2 0.2 0.3 0.1 0.4-0.2 0.3-0.3 0.3-0.4 0.2-0.5 0.1-0.4m-10.2 5.9v-0.4l-0.3-0.3h-0.3l-0.3 0.1-0.4 0.3-0.3 0.4-0.2 0.5-0.1 0.5 0.1 0.3 0.2 0.3h0.3l0.4-0.1 0.3-0.3 0.3-0.4 0.3-0.5v-0.4m10.2 219.5-0.1-0.4-0.2-0.2-0.3-0.1-0.3 0.1-0.4 0.3-0.3 0.4-0.2 0.5-0.1 0.5 0.1 0.4 0.2 0.2 0.3 0.1 0.4-0.2 0.3-0.3 0.3-0.4 0.2-0.5 0.1-0.4m-10.2 5.9v-0.4l-0.3-0.3h-0.3l-0.3 0.1-0.4 0.3-0.3 0.4-0.2 0.5-0.1 0.5 0.1 0.3 0.2 0.3h0.3l0.4-0.1 0.3-0.3 0.3-0.4 0.3-0.5v-0.4m3.1-114.5 0.1-0.5 0.2-0.5 0.4-0.5 0.4-0.3 0.4-0.1h0.3l0.2 0.3 0.1 0.4-0.1 0.5-0.2 0.5-0.3 0.4-0.4 0.4-0.4 0.1-0.4-0.1-0.2-0.2-0.1-0.4m0-80.4 0.1-0.5 0.2-0.5 0.4-0.5 0.4-0.3 0.4-0.1 0.3 0.1 0.2 0.2 0.1 0.4-0.1 0.5-0.2 0.5-0.3 0.5-0.4 0.3-0.4 0.1h-0.4l-0.2-0.3-0.1-0.4m0 160.7 0.1-0.5 0.2-0.5 0.4-0.4 0.4-0.3 0.4-0.2 0.3 0.1 0.2 0.2 0.1 0.4-0.1 0.5-0.2 0.6-0.3 0.4-0.4 0.3-0.4 0.2-0.4-0.1-0.2-0.3-0.1-0.4m7.6 30.9-13.1 7.6m15.3-237.5 2.9 4.9m0 0v222.1m0 0-2.9 1.7m-2.7-1.7-0.3 0.1-0.7 0.7-0.2 0.5v0.7m6.8-224.1 0.2 0.4 0.1 0.3 0.1 0.4v0.5m0 220.2v0.1h-0.1l-0.1 0.1-0.2 0.1m-15.8 5.9-0.3 0.1-0.3 0.3-0.3 0.4-0.2 0.5-0.1 0.4v0.3m-1.6-227.7v-0.3l0.1-0.3 0.1-0.2 0.2-0.2m0 231.3-0.1 0.1-0.2 0.1h-0.1m1.7-228.2-0.1-0.3m6.3 188.3-0.3 0.1-0.4 0.4-0.3 0.4-0.2 0.5-0.1 0.5 0.1 0.3m1.2-82.6-0.3 0.2-0.4 0.3-0.3 0.4-0.2 0.5-0.1 0.5 0.1 0.4m1.2-82.6-0.3 0.1-0.4 0.3-0.3 0.5-0.2 0.5-0.1 0.5 0.1 0.3m6.3-37.4-0.3 0.1-0.7 0.7-0.2 0.5v0.7m-9 3.9-0.3 0.1-0.3 0.3-0.3 0.4-0.2 0.5-0.1 0.4v0.3m161.3-97.1 0.3-0.1h0.2l0.6 0.2 0.4 0.2 0.3 0.3 0.2 0.3 0.3 0.4m-2.3-1.3v231.3m2.3-1.3-0.2 0.1-0.3 0.1-0.2 0.2-0.3 0.1-0.6 0.4-0.2 0.1-0.3 0.1-0.2 0.2m2.3-230v228.7m-2.3-230-13 7.5m0 0v231.3m12.6-235.6-0.1-0.4-0.2-0.2-0.3-0.1-0.4 0.2-0.4 0.3-0.3 0.4-0.2 0.4-0.1 0.5 0.1 0.4 0.2 0.2 0.3 0.1 0.4-0.1 0.4-0.3 0.3-0.5 0.2-0.4 0.1-0.5m-10.2 5.9-0.1-0.4-0.2-0.2-0.3-0.1-0.4 0.1-0.7 0.7-0.2 0.5v0.9l0.2 0.2 0.4 0.1 0.3-0.2 0.4-0.3 0.3-0.4 0.2-0.4 0.1-0.5m10.2 219.5-0.1-0.4-0.2-0.2-0.3-0.1-0.8 0.4-0.3 0.5-0.2 0.4-0.1 0.5 0.1 0.4 0.2 0.2 0.3 0.1 0.4-0.1 0.4-0.3 0.3-0.5 0.2-0.4 0.1-0.5m-10.2 5.9-0.1-0.4-0.2-0.2-0.3-0.1-0.4 0.1-0.7 0.7-0.2 0.5v0.9l0.2 0.2 0.4 0.1 0.3-0.2 0.4-0.3 0.3-0.4 0.2-0.5 0.1-0.4m3.1-114.5 0.1-0.5 0.2-0.5 0.3-0.5 0.4-0.3 0.4-0.1h0.3l0.3 0.3v0.9l-0.6 1-0.4 0.3-0.4 0.1h-0.3l-0.2-0.3-0.1-0.4m0-80.4 0.1-0.5 0.2-0.5 0.3-0.4 0.4-0.3 0.4-0.2 0.3 0.1 0.3 0.2v0.9l-0.3 0.6-0.3 0.4-0.4 0.3-0.4 0.2-0.3-0.1-0.2-0.3-0.1-0.4m0 160.8 0.1-0.5 0.2-0.6 0.3-0.4 0.4-0.3 0.4-0.2 0.3 0.1 0.3 0.3v0.9l-0.3 0.5-0.3 0.4-0.4 0.3-0.4 0.2-0.3-0.1-0.2-0.2-0.1-0.4m7.5 30.9-13 7.5m15.3-237.5 2.8 4.9m0 0v222.1m0 0-2.8 1.7m-2.8-1.7-0.2 0.1-0.4 0.3-0.3 0.4-0.2 0.5-0.1 0.5v0.3m6.8-224.2 0.2 0.4 0.1 0.3 0.1 0.4 0.1 0.3v0.2m0 220.3v0h-0.2l-0.1 0.1-0.2 0.1m-15.8 5.9-0.2 0.1-0.4 0.3-0.3 0.4-0.2 0.5-0.1 0.5 0.1 0.2m-1.7-227.7 0.1-0.3v-0.3l0.4-0.4m0 231.3-0.2 0.1-0.1 0.1h-0.1l-0.1 0.1m1.8-228.3-0.2-0.3m6.4 188.3-0.3 0.2-0.4 0.3-0.3 0.4-0.3 0.5v0.9m1.3-82.6-0.3 0.1-0.4 0.3-0.6 1v0.8m1.3-82.6-0.3 0.1-0.4 0.4-0.3 0.4-0.3 0.5v0.8m6.3-37.4-0.2 0.1-0.4 0.3-0.3 0.5-0.2 0.4-0.1 0.5v0.3m-9 3.8-0.2 0.1-0.4 0.3-0.3 0.4-0.2 0.5-0.1 0.5 0.1 0.2m-230 52.3-0.7 0.4m0 0-2.2-1.2m-312.3 180.3 312.3-180.3m-310.1 181.6-2.2-1.3m1.5 1.7 0.7-0.4m-5.9 2.5 5.2-2.1m-5.2 2.1 10.2 5.9m3.6-3-3.6 3m4.3-3.4-0.7 0.4m2.9 0.8-2.2-1.2m2.2 1.2 312.4-180.3m0 0-2.2-1.3m0 0 0.7-0.4m0 0 5.1-2.1m-10.1-5.8 10.1 5.8m-10.1-5.8-3.7 2.9m0 0v-0.7m3.7-2.2v-0.8m0 0-3.7 3m13.8 3.6v-0.7m-10.1-5.9 10.1 5.9m-330.1 175.4 312.3-180.3m-311.2 182.2-0.2-0.1-0.3-0.2-0.1-0.3-0.2-0.2-0.2-0.3-0.1-0.3v-0.5m313.4-178.4-0.6-0.6-0.1-0.2-0.2-0.3-0.2-0.6v-0.2m0-3.4v-0.2l0.2-0.4 0.2-0.1h0.5l0.2 0.1m-1.1 4v-3.4m3.3 6.5v-0.7m-2.2-1.3v0l-0.3-0.3v-0.1l-0.1-0.1v-0.3m0 0v-3.3m0 0v-0.2h0.1v-0.1h0.3v0.1m0 0 2.2 1.2m0 0v-0.7m-2.2-1.3 2.2 1.3m0 5.1-2.2-1.3m-313.4 178.7-2.6 1.1m4.4 2.5-4.4-2.5m332.7-180.4-4.4 1.8m4.4-1.8-10.1-5.8m-3.7 2.9 3.7-2.9m-4.4 3.3 0.7-0.4m-316.3 179.4 312.3-180.4m-312.3 183.7v-3.3m316.3-179.4v-0.7m3.7-3v0.8m-3.7 2.2 3.7-3m10.1 6.6v-0.7m0 0-10.1-5.9m-3.7 8.1-0.7 0.4m-315.6 174.6v-0.5l0.3-0.3m315.3-178.9 0.7-0.4m10.6 10v1.5m0 0v0.2l-0.1 0.1h-0.2l-0.1-0.1m1.1 0.2v0.2l-0.2 0.4-0.1 0.1-0.2 0.1h-0.2l-0.4-0.2m1.1-0.6v-2.1m-1.1 1.9-1.5-0.8m-310.1 182-0.2 0.1h-0.2l-0.4-0.2m-16.7-3.7v-0.8m5.2-1.3v-0.8m-5.2 2.1 5.2-2.1m0 0v0m-5.2-2.2v-0.8m2.6-1-2.6 1m10.2-331.2-10.2-5.9m10.2 5.9 3.6-3m0 0 0.7-0.4m0 0 2.2 1.3m312.4-180.4-312.4 180.4m310.2-181.6 2.2 1.2m-1.5-1.6-0.7 0.4m5.8-2.5-5.1 2.1m5.1-2.1-10.1-5.9m-3.7 3 3.7-3m-4.4 3.4 0.7-0.4m-2.9-0.9 2.2 1.3m-2.2-1.3-312.3 180.3m0 0 2.2 1.3m0 0-0.7 0.4m0 0-5.2 2.1m296.3-172 0.4-0.1h0.8l0.4 0.1 0.2 0.2 0.1 0.3-0.1 0.2-0.2 0.2-0.4 0.2h-0.8l-0.4-0.2-0.2-0.2-0.1-0.2 0.1-0.3 0.2-0.2m-67.9 39.3 0.4-0.2h0.8l0.4 0.2 0.2 0.2 0.1 0.2-0.1 0.2-0.2 0.2-0.4 0.2h-0.8l-0.4-0.2-0.2-0.2-0.1-0.2 0.1-0.2 0.2-0.2m-67.9 39.2 0.4-0.2h0.8l0.4 0.2 0.2 0.2 0.1 0.2-0.1 0.2-0.2 0.2-0.4 0.2h-0.8l-0.4-0.2-0.2-0.2-0.1-0.2 0.1-0.2 0.2-0.2m-67.9 39.2 0.4-0.2h0.8l0.6 0.4 0.1 0.2-0.1 0.2-0.6 0.4h-0.8l-0.4-0.2-0.2-0.2-0.1-0.2 0.1-0.2 0.2-0.2m-67.9 39.2 0.4-0.2h0.8l0.6 0.4v0.4l-0.6 0.4h-0.8l-0.4-0.2-0.2-0.2-0.1-0.2 0.1-0.2 0.2-0.2m297.9-171.9v0.8m-3.7 2.2v0.8m0-0.8 3.7-3m10.1 6.7v-0.8m0 0-10.1-5.9m-7.7 1v0.2l0.2 0.6 0.2 0.3 0.1 0.2 0.2 0.3 0.2 0.2 0.2 0.1m-1.1-1.9-312.3 180.3m0 0v0.5l0.1 0.3 0.4 0.6 0.1 0.2 0.3 0.2 0.2 0.1m314.5-179.8v0.8m-2.6-2.8v0.2l0.1 0.1v0.1l0.3 0.3m-0.4-4v3.3m0.4-3.6v-0.1h-0.2l-0.2 0.2v0.2m2.6 1-2.2-1.3m2.2 0.5v0.8m0-0.8-2.2-1.3m0 0-0.2-0.1h-0.5l-0.3 0.3-0.1 0.2v0.3m0 0v3.3m1.1 1.1 2.2 1.3m10.1 0 4.4-1.8m-10.1-5.9 10.1 5.9m-10.1-5.9-3.7 2.9m0 0-0.7 0.5m-318.2 182.8 2.6-1.1m-2.6 1.1 4.4 2.5m310.5-186.7-312.3 180.3m0 0v3.3m330.1-180.5v0.8m-10.1-6.7v0.8m0-0.8 10.1 5.9m-13.8-2.9v0.7m3.7-3.7-3.7 3m-0.7 5.5 0.7-0.4m-316 174.3v0l-0.2 0.1-0.1 0.1v0.5m316.3-180.1-0.7 0.4m10.9 12.1 0.4 0.2h0.2l0.2-0.1 0.1-0.1 0.2-0.4v-0.2m0-2.1v2.1m-0.7-0.4v-1.4m-0.4 1.7h0.4v-0.3m-1.9-0.6 1.5 0.9m-312.4 181.1 0.2 0.1h0.4l0.2-0.1m280.4-175.6 0.1-0.1m-1.7 0v0.1l0.4 0.1h0.8l0.4-0.1m-67.9 39.2v-0.1m-1.6 0v0.1l0.4 0.1h0.8l0.4-0.1m-67.9 39.2v-0.1m-1.7 0 0.1 0.1 0.8 0.2 0.8-0.2m-68 39.2 0.1-0.1m-1.7 0 0.1 0.1 0.8 0.2 0.4-0.1 0.3-0.1m-67.9 39.2 0.1-0.1m-1.7 0 0.1 0.1 0.8 0.2 0.4-0.1 0.3-0.1m-21 12.1v0.8m-5.2 2.1v-0.8m5.2-2.1-5.2 2.1m5.2-2.1v0m-5.2-3v0.8m0-0.8 2.6-1m15.2 306 281.9-162.7m-281.9 162.7 0.1 0.2v0.3l0.1 0.3 0.2 0.3 0.1 0.2 0.2 0.3 0.2 0.1 0.2 0.2m0 0 281.9-162.7m-1.1-1.9v0.5l0.1 0.3 0.2 0.3 0.1 0.2 0.2 0.3 0.2 0.2 0.3 0.1m-1.1-17v15.1m1.1 1.9 2.8 1.7m0 0 0.2 0.1h0.4l0.4-0.2 0.1-0.1v-0.5m0 0v-15.1m0 0v-0.5l-0.1-0.3-0.2-0.2-0.2-0.3-0.1-0.2-0.3-0.2-0.2-0.2m0 0-2.8-1.6m0 0-0.3-0.1-0.2-0.1h-0.2l-0.1 0.1-0.2 0.1-0.1 0.2v0.4m0.6 0.4v15.1m0.5-15.4h-0.4l-0.1 0.1v0.2m3.3 1.4-2.8-1.7m3.3 2.5v-0.1l-0.1-0.2v-0.2l-0.3-0.3h-0.1m0.5 15.8v-15m-0.5 15.3h0.1l0.1 0.1 0.1-0.1h0.1v-0.1l0.1-0.1v-0.1m-3.3-1.4 2.8 1.7m-3.3-2.4v0.2l0.1 0.1v0.1l0.3 0.3h0.1m-283 146.5 281.9-162.7m-281.9 162.7v15.1m1.1 1.9 2.9 1.6m0 0 281.8-162.6m-279.1 159.4-0.3-0.2-0.1-0.3 0.1-0.3 0.3-0.3 1-0.2 0.5 0.1 0.4 0.1 0.3 0.3 0.1 0.3-0.1 0.3-0.3 0.2-0.4 0.2-0.5 0.1-0.5-0.1-0.5-0.2m67.9-39.2-0.3-0.2-0.1-0.3 0.1-0.3 0.3-0.3 1-0.2 0.5 0.1 0.4 0.1 0.3 0.3 0.1 0.3-0.1 0.3-0.3 0.2-0.4 0.2-0.5 0.1-0.5-0.1-0.5-0.2m67.9-39.2-0.3-0.2-0.1-0.3 0.1-0.3 0.3-0.3 1-0.2 0.5 0.1 0.4 0.1 0.3 0.3 0.1 0.3-0.1 0.3-0.3 0.2-0.4 0.2-0.5 0.1-0.5-0.1-0.5-0.2m67.9-39.2-0.2-0.2-0.2-0.3 0.4-0.6 1-0.2 1 0.2 0.2 0.3 0.1 0.3-0.1 0.3-0.2 0.2-0.5 0.2-0.5 0.1-0.5-0.1-0.5-0.2m68-39.2-0.3-0.2-0.1-0.3 0.1-0.3 0.3-0.3 0.4-0.2h1l0.5 0.2 0.3 0.3 0.1 0.3-0.1 0.3-0.3 0.2-0.5 0.2h-1l-0.4-0.2m-274.4 160 0.4 0.2h0.2l0.2-0.1m3.1-4.6-0.9 0.5m0 0v-0.4m68.8-39.3-0.9 0.5m0 0v-0.4m136.7-78.5-0.9 0.5m0 0v-0.4m-67 39.1-0.9 0.5m0 0v-0.4m139.7-92.2 1.2-0.8m0 0v11.2m-4.1 3.3-1 0.5m0 0v-0.4m-0.5 0.3 0.3 0.2 0.4 0.1 0.5 0.1 1-0.2 0.2-0.2m-280.1 141.6v0l-0.2 0.1-0.1 0.2v0.2l-0.1 0.2m279.3-142.7v0.1m4.4-13.8-1.2 0.7m-72.3 52.6 0.2 0.2 1 0.2 1-0.2 0.2-0.2m-1.2-0.4v0.1m-69.1 39.5 0.2 0.2 1 0.2 0.5-0.1 0.4-0.1 0.3-0.2m-1.2-0.4v0.2m-69.1 39.4 0.2 0.2 1 0.2 0.5-0.1 0.4-0.1 0.3-0.2m-1.2-0.4v0.2m-69.1 39.4 0.2 0.2 1 0.2 0.5-0.1 0.4-0.1 0.2-0.2m-1.1-0.4v0.2m278.1-430.8-2.8-1.6m3.9 1v0.4l-0.1 0.2-0.4 0.2h-0.1l-0.3-0.1-0.2-0.1m1.1-15.7v15.1m-1.1-17 0.2 0.1 0.3 0.2 0.1 0.3 0.2 0.2 0.2 0.3 0.1 0.3v0.5m-3.9-3.6 2.8 1.7m-3.9-1v-0.5l0.1-0.1 0.2-0.1 0.1-0.1h0.4l0.3 0.1m-1.1 15.7v-15m1.1 17-0.3-0.2-0.4-0.4-0.1-0.3-0.2-0.2-0.1-0.3v-0.6m1.1-14.9 2.8 1.7m0 0h0.1l0.3 0.3v0.2l0.1 0.1v0.1m0 0v15.1m0 0v0.1l-0.1 0.1v0.1h-0.4m0 0-2.8-1.7m0 0-0.1-0.1h-0.1l-0.2-0.2v-0.1l-0.1-0.2v-0.2m0 0v-15m0 0v-0.2l0.2-0.2h0.1l0.1 0.1h0.1m0 16.9-281.9 162.7m280.8-164.7-281.9 162.7m1.1 2-0.6-0.6-0.1-0.3-0.2-0.2-0.1-0.3v-0.3l-0.1-0.3m281.9-177.7-281.9 162.7m0 15v-15m285.8-144.1-281.8 162.7m0 0-2.9-1.6m3.7 1.7-0.2 0.1h-0.2l-0.4-0.2m278.5-175.1 1.2-0.7m0 0v11.2m-283.7 146 0.1-0.3v-0.2l0.1-0.1 0.2-0.1m283.3-155.7-1.2 0.7m44.1 220.7v-219.5m0 219.5 0.2-0.1 0.6-0.2h0.6l0.3 0.1 0.2 0.1 0.3 0.1m0 0v-219.5m-2.2 0 0.2-0.2h0.3l0.3-0.1h0.6l0.3 0.1h0.2l0.3 0.2m-12.4 229.9-2.9-1.6m5.1 1.6-0.2 0.2h-0.3l-0.3 0.1h-0.6l-0.3-0.1h-0.3l-0.2-0.2m15.3-7.5-13.1 7.5m13.1-8.8 0.1 0.2 0.2 0.1 0.1 0.2v0.4l-0.4 0.4m-2.9-2.9 2.9 1.6m-18.2 5.9 13.1-7.5m-13.1 8.8-0.2-0.1-0.2-0.4v-0.3l0.2-0.4 0.2-0.1m14.6-7.1 2.9 1.6m0 0 0.2 0.2v0.1l-0.1 0.1v0.1h-0.1m0 0-13.1 7.6m0 0h-0.2l-0.1 0.1h-0.2l-0.2-0.1h-0.2m0 0-2.8-1.7m0 0h-0.1l-0.1-0.1v-0.3l0.1-0.1h0.1m0 0 13-7.5m0 0 0.1-0.1h0.7l0.1 0.1m-14.6 7.1v-219.5m0 0 13.1-7.5m5.1 221.1v-219.5m-2.9-1.6 2.9 1.6m-1.5 213.9-0.7-0.7-0.2-0.5v-0.8l0.2-0.2 0.4-0.1 0.3 0.1 0.4 0.3 0.3 0.4 0.2 0.5 0.1 0.5-0.1 0.4-0.2 0.2-0.3 0.1-0.4-0.2m0-51.9-0.7-0.7-0.2-0.5v-0.8l0.2-0.3h0.4l0.3 0.1 0.4 0.3 0.3 0.4 0.2 0.5 0.1 0.4-0.1 0.4-0.2 0.3h-0.3l-0.4-0.1m0-52-0.3-0.2-0.4-0.5-0.2-0.4v-0.9l0.2-0.2 0.4-0.1 0.3 0.1 0.4 0.3 0.3 0.5 0.2 0.4 0.1 0.5-0.1 0.4-0.2 0.2-0.3 0.1-0.4-0.2m0-51.9-0.7-0.7-0.2-0.5v-0.8l0.2-0.3h0.4l0.3 0.1 0.4 0.3 0.3 0.4 0.2 0.5 0.1 0.5-0.1 0.3-0.2 0.3h-0.3l-0.4-0.1m0-51.9-0.7-0.7-0.2-0.5v-0.9l0.2-0.2 0.4-0.1 0.3 0.2 0.4 0.3 0.3 0.4 0.2 0.5 0.1 0.4-0.1 0.4-0.2 0.2-0.3 0.1-0.4-0.1m1.5-6.2 0.1 0.2 0.2 0.1 0.1 0.2v0.2m-2.4 211.7v1m-0.8 5.3-9.6 5.6m0 0v-1.4m10-10.3 0.4-0.2m-0.4-51.7 0.4-0.3m0 0v1.1m-0.4-104.7 0.4-0.2m0 0v1m-0.4 51.1 0.4-0.2m0 0v1m-0.4-104.7 0.4-0.2m0 0v1.1m-0.1 206.4-0.3-0.1m1.2 2v-0.2l-0.1-0.5-0.2-0.5-0.3-0.4-0.3-0.3m-16.5-205.6v-0.1l0.2-0.4 0.2-0.1m16.2 207.2-0.2 0.1m-9.6 9.3v1.4m9.7-63.7-0.3-0.1m1.2 2v-0.3l-0.1-0.4-0.2-0.5-0.3-0.4-0.3-0.3m0.1 1-0.2 0.1m0.1-53.1-0.3-0.1m1.2 2.1v-0.3l-0.1-0.5-0.2-0.5-0.3-0.4-0.3-0.3m0.1 1.1h-0.2m0.1-53-0.3-0.1m1.2 2v-0.3l-0.1-0.4-0.2-0.5-0.3-0.4-0.3-0.3m0.1 1-0.2 0.1m0.1-53.1-0.3-0.1m1.2 2.1v-0.3l-0.1-0.5-0.2-0.4-0.3-0.5-0.3-0.3m0.1 1.1-0.2 0.1m-358.9 199.6v219.6m0-219.6-0.2-0.1-0.3-0.1h-1.2l-0.3 0.1-0.2 0.1m0 0v219.6m2.2 0-0.2-0.2h-0.3l-0.3-0.1h-0.6l-0.3 0.1h-0.3l-0.2 0.2m0 0-13.1 7.5m0 0-0.2 0.1-0.2 0.4v0.3l0.1 0.2 0.3 0.3m0 0 2.9 1.6m0 0 0.2 0.1 0.6 0.2h0.6l0.6-0.2 0.2-0.1m0 0 13.1-7.5m0 0 0.2-0.1 0.2-0.4v-0.3l-0.2-0.4-0.2-0.1m0 0-2.9-1.6m-1.6 0.3-13 7.6m13.9-7.6h-0.2l-0.1-0.1h-0.2l-0.2 0.1h-0.2m3.8 1.7-2.9-1.7m2.9 2.2h0.1v-0.1l0.1-0.1v-0.1l-0.1-0.1v-0.1h-0.1m-13 8 13-7.5m-13.9 7.5 0.1 0.1h0.2l0.1 0.1 0.1-0.1h0.3l0.1-0.1m-3.8-1.6 2.9 1.6m-2.9-2.1h-0.1v0.1l-0.1 0.1v0.1l0.2 0.2m12.4-228-13.1 7.6m0 0v219.5m18.2-225.4v219.5m0-219.5-2.9-1.7m3.3 2.3v-0.1l-0.2-0.4-0.2-0.1m-2.8 218.7-9.6 5.5m0 0v-1.4m-5.8-216.9-0.2 0.1-0.1 0.2-0.1 0.1v0.2m6.8 216v1.4m-24.5 21.7-2.2-1.3m0 0-0.3-0.1-0.2-0.1h-0.3l-0.4-0.1-0.3 0.1h-0.3l-0.2 0.1-0.3 0.1m0 0-2.8 1.7m0 0-0.2 0.1-0.3 0.3v0.4l0.1 0.2 0.4 0.2m0 0 1.4 0.9m0.7-0.4-0.7 0.4m-0.8-1.2 1.5 0.8m-1.5-1.4v0.1l-0.2 0.2 0.2 0.2v0.1m2.9-2.2-2.9 1.6m3.8-1.6-0.1-0.1h-0.7l-0.1 0.1m3.1 1.3-2.2-1.3m2.9 0.9-0.7 0.4m-1.5-233v231.3m0-231.3-0.3-0.1-0.2-0.1h-1.3l-0.2 0.1-0.3 0.1m0 0v231.3m0-231.3-2.8 1.7m0 0v231.3m18.1 5.8-2.2-1.2m2.2-230v231.2m0-231.2-2.2-1.3m0 5.9v-5.9m0 5.9-8.6-5m0 0v-5.9m0 0-2.2-1.3m2.2 226.7v5.9m8.6-0.9-8.6-5m8.6 5v5.9m-10.2-225.4 0.1-0.3 0.2-0.2 0.2-0.1 0.3 0.1 0.3 0.3 0.2 0.3 0.2 0.4 0.1 0.4-0.1 0.3-0.4 0.2-0.3-0.1-0.3-0.2-0.4-0.8-0.1-0.3m0 51.9 0.1-0.3 0.2-0.2h0.2l0.3 0.1 0.3 0.2 0.2 0.3 0.2 0.4 0.1 0.4-0.1 0.3-0.2 0.2h-0.2l-0.3-0.1-0.3-0.2-0.2-0.3-0.2-0.4-0.1-0.4m0 52 0.1-0.3 0.2-0.2 0.2-0.1 0.3 0.1 0.3 0.3 0.2 0.3 0.2 0.4 0.1 0.3-0.1 0.3-0.2 0.2-0.2 0.1-0.3-0.1-0.3-0.3-0.2-0.3-0.2-0.4-0.1-0.3m0 51.9 0.1-0.3 0.2-0.2h0.2l0.3 0.1 0.3 0.2 0.2 0.3 0.2 0.4 0.1 0.4-0.1 0.3-0.2 0.2h-0.2l-0.3-0.1-0.3-0.2-0.2-0.4-0.2-0.3-0.1-0.4m0 51.9 0.1-0.3 0.2-0.2h0.2l0.3 0.1 0.3 0.2 0.2 0.4 0.2 0.3 0.1 0.4-0.1 0.3-0.2 0.2-0.2 0.1-0.3-0.1-0.3-0.3-0.2-0.3-0.2-0.4-0.1-0.4m-5.7-218.2-0.2 0.1-0.2 0.2-0.1 0.2v0.1m12.7 232.4v5.9m0 0 1.5 0.8m-1.5-232.1 1.5 0.8m-1.5 0v-0.8m-10.1 223.2v2.2m5.2-2.9 4.9 2.9m3.1-2.6 0.6-0.4m-0.6 0.4-8-4.6m-0.7-6.2v-0.1l-0.2-0.8-0.3-0.3-0.3-0.2-0.1-0.1m9.6 18.2 0.6-0.4m-0.6-5.5v5.9m2.1 1.7h0.1l0.1-0.1v-0.3h-0.1l-0.1-0.1m-2.8 2.2 2.8-1.7m-3.7 1.7h0.1l0.1 0.1h0.5l0.1-0.1h0.1m-3-0.4 0.6-0.4m0.8 1.2 0.3 0.1 0.2 0.1h1.2l0.3-0.1 0.2-0.1m0 0 2.9-1.7m0 0 0.2-0.1 0.2-0.2v-0.1l0.1-0.2-0.1-0.2v-0.2l-0.2-0.1-0.2-0.2m-6.5 2.2 1.4 0.8m4.4-2.6-2.1-1.2m-3.7-2.9 0.6-0.4m-4.9-2.1 4.3 2.5m7-226.9-0.1-0.2v-0.1l-0.2-0.2-0.2-0.1m-3.5 2.5 0.7-0.4m-3.7 225.4v5.9m2.1-230.9 0.1 0.1h0.7l0.1-0.1m-8 159.3v-0.1l-0.2-0.8-0.6-0.6h-0.1m0.9-50.5v-0.1l-0.1-0.4-0.1-0.3-0.3-0.4-0.3-0.2h-0.1m0.9-50.5v-0.1l-0.2-0.8-0.3-0.3-0.3-0.2-0.1-0.1m0.9-50.5v-0.1l-0.1-0.3-0.1-0.4-0.6-0.6h-0.1m9.6-5.4 0.6-0.4m-0.6 5.5v-5.1m-3.7 3 0.6-0.4m-0.6 0.4v0m410.5-20.4v-231.3m0 231.3 0.3-0.2h0.2l0.3-0.1h0.6l0.3 0.1h0.3l0.2 0.2m0 0v-231.3m-2.2 0 0.3-0.1 0.2-0.1 0.3-0.1h0.6l0.6 0.2 0.2 0.1m0 231.3 1.5 0.8m-6.5 0.8 2.8-1.6m-2.8 2.9-0.2-0.1-0.2-0.2-0.1-0.2v-0.3l0.1-0.2 0.2-0.1 0.2-0.2m2.1 2.6-2.1-1.3m2.1 1.3 0.7-0.4m0 0-2.2-1.3m0 0h-0.1v-0.1l-0.1-0.1v-0.1l0.2-0.2m0 0 2.9-1.7m0 0h0.2l0.1-0.1h0.3l0.1 0.1h0.2m0 0 1.4 0.9m0 0 0.7-0.4m-1.5-232.1 1.5 0.8m0 225.4v5.9m0-5.9 10.2 5.9m0 0v5.9m0 0 1.4 0.8m0 0v-231.3m-1.4-0.8 1.4 0.8m-1.4 5.1v-5.9m-10.2 0 10.2 5.9m-10.2-5.9v-5.9m-6.5 232.1v-231.3m0 0 2.8-1.6m-3.3 2.3v-0.2l0.1-0.2 0.2-0.1 0.2-0.2m2.8 230.4v3.1m3.7-3.8 5 2.9m0 0v5.9m2.2 1.2-2.2-1.2m2.2-230-2.2-1.3m0 0.8v-0.8m5.2 223.3-0.7 0.4m0 0-9.5-5.5m8.7 14.7-0.2 0.1-0.6 0.2h-0.6l-0.6-0.2-0.2-0.1m5.1-1.6-2.9 1.6m2.9-2.9 0.2 0.1 0.2 0.4 0.1 0.1-0.2 0.4-0.3 0.3m-1.4-2.1-0.7 0.3m1.4 0.9h0.1l0.1 0.1v0.3h-0.1l-0.1 0.1m0 0-2.8 1.6m0 0-0.1 0.1h-0.1l-0.2 0.1h-0.2l-0.1-0.1h-0.1l-0.1-0.1m-2.2-1.2-0.7 0.4m2.2 1.2-2.2-1.2m5.2-2.2 1.4 0.9m-1.4-6.7v5.8m-4.5-4.1-0.7 0.4m0 0-4.3-2.5m11.6-224.6 0.3 0.3 0.2 0.4m-2.6 1-1.4 0.9m-3.8 224.5v5.9m3.8-230.4h-0.1l-0.1 0.1h-0.5l-0.1-0.1h-0.1m3-3.4-0.7 0.4m0 5.1v-5.1m-4.5 1.7-0.7 0.4m0 0v0m-213.6 40.9-143.5-7.2m143.5 7.2v-0.4l0.1-0.3v-1.5m0 0-143.4-7.2m-0.2 2.2 0.1-0.2v-1.2l0.1-0.3v-0.5m-1.8 12.8 1.6-10.6m0.2-2.2v-3.3m0 0v-0.5l-0.1-0.1v-0.1 0.1l-0.1 0.2m0 0-1.6 10.6m0 0v0.7l-0.1 0.3v1.2m0 0v3.3m0 0v0.6l0.1 0.1v-0.3m0-0.8 1.6-10.6m-1.6 10.5v0.2-0.1m0-3.4v3.3m0-4.2v0.9m1.6-11.5-1.6 10.6m1.7-10.5v-0.3 0.1h-0.1v0.1m0.1 3.4v-3.3m-0.1 4.2v-0.1l0.1-0.1v-0.7m143.5 6.7v-3.3m0 0-143.4-7.2m141.7 23.3-143.5-7.2m143.5 7.2 1.6-10.6m-74.4 1.6 0.2-0.3 0.3-0.3 0.5-0.2 0.6-0.2h0.6l1 0.4 0.4 0.3 0.1 0.3-0.1 0.4-0.2 0.3-0.4 0.2-0.6 0.2-0.6 0.1-0.6-0.1-0.5-0.2-0.4-0.2-0.2-0.3-0.1-0.4m74.5-7.1v-0.6m-74.4 7.4 0.4 0.4 0.5 0.2 0.5 0.1h0.7l0.5-0.1 0.5-0.2 0.4-0.4m69.1 9.6v0l0.1-0.1v-0.2m94-54.2-12.6-82.8m12.6 82.8 0.6-0.2 0.2-0.1 0.3-0.2 0.2-0.2 0.2-0.4v-0.3m0 0-12.5-82.8m-1.6 1.4 0.9-0.3 0.6-0.6 0.1-0.3v-0.2m-20 2.3 18.4-0.9m1.6-1.4v-3.3m0 0v-0.3l-0.1-0.2-0.6-0.6-0.3-0.1h-0.6m0 0-18.4 0.9m0 0h-0.3l-0.3 0.1-0.2 0.2-0.3 0.1-0.2 0.2-0.1 0.3-0.1 0.2v0.3m0 0v3.3m0 0v0.2l0.1 0.3 0.1 0.2 0.2 0.2 0.3 0.1 0.2 0.1 0.3 0.1h0.3m0-0.8 18.4-0.9m-19 0.4v0.1l0.1 0.1v0.1l0.1 0.1h0.1l0.1 0.1h0.2m-0.6-3.8v3.3m0.6-3.8h-0.2l-0.1 0.1h-0.1l-0.1 0.1v0.1l-0.1 0.1v0.1m19-1.5-18.4 1m19.1-0.5-0.1-0.1v-0.1l-0.2-0.2h-0.1l-0.2-0.1h-0.1m0.7 3.8v-3.3m-0.7 3.9h0.1l0.2-0.1h0.1l0.1-0.1v-0.1l0.1-0.1v-0.1l0.1-0.1m-6.5 85.1-12.6-82.8m12.6 82.8 18.4-0.9m-15.7-42h0.7l0.5 0.1 0.5 0.3 0.3 0.3 0.1 0.3-0.1 0.4-0.3 0.3-1 0.4h-0.6l-0.6-0.1-0.5-0.2-0.4-0.3-0.2-0.3v-0.3l0.2-0.4 0.3-0.3 0.6-0.2h0.5m17.2 40.6v-3.3m0 0-12.5-82.8m-9 87.3 0.1 0.1v0.3l0.4 0.4 0.2 0.1 0.6 0.2h0.3m19.9-5.6v-0.2m-16.8-35.8 0.6-0.1 0.5-0.2 0.3-0.2 0.1-0.2m-3.4 0 0.2 0.3 0.5 0.3 0.6 0.1h0.6m73.5 77.7 10.5 6.1m-10.5-6.1v212.5m0 0 10.5 6.1m0-212.5v212.5m-10.5-6.1-301.9 174.3m0 0 10.5 6.1m301.9-174.3-301.9 174.3m-10.5-218.6 301.9-174.3m-301.9 386.8v-212.5m302.7 99.7 0.4-0.2m13.1 11.8 0.4-0.2m-13.5-354.6-0.4 0.3m13.9 11.3-0.4 0.3m-25.5 316.5 0.5-0.3m-3.8-12.9 3.8-2.1m-3.8-2.2 0.5-0.3m-0.5 3.6 3.3-1.9m0.5-256.6-0.5 0.3m0.5-15.4-3.8 2.2m0.5-4.6-0.5 0.3m3.3 1.4-3.3 1.9m48.5 226.5v-0.5m-13.1 8.1v-4.4m-3.7 2.7v-0.5m2.8 2.2v-3.9m-344.2 202.6v0.5m-13 3.2v4.3m-3.8-2.1v0.5m2.9-2.2v3.8m-28.4 18.4v0.6m13.1-223.8v0.8m0 220.3v10.2m3.7-2.2v0.5m-2.8-229.6v1.3m0 220.3v9.7m405.3-249.6v-0.5m13.1 8v-10.2m0-220.3v-0.7m3.7 229.6v-0.5m-2.8 2.1v-9.7m0-220.2v-1.3m-360.8 27.7h-0.1m71.5 14.3-1.4-0.1m-71-3.6h-0.7m0 4.2v0m0.5-3.3h-0.5m205.9-125.8v-0.2m0.6 0.5-0.6-3.8m19.6 2.5-0.6-4m-17.7 5.3-0.7-4.3" style="fill:none;stroke-linecap:round;stroke-linejoin:round;stroke-width:1.941;stroke:#5e6158"/>
    </g>
    <g style="stroke-width:1.458;stroke:#5e6158">
      <g transform="matrix(.09935 0 0 -.09935 125.5 123.4)" style="stroke-width:5.176;stroke:#5e6158">
        <path d="m0 0 6.388 3.688" style="fill:none;stroke-dasharray:93.15970439, 18.63194086, 18.63194086, 18.63194086, 18.63194086, 18.63194086;stroke-linecap:round;stroke-linejoin:round;stroke-miterlimit:10;stroke-width:2.64;stroke:#5e6158"/>
      </g>
      <g transform="matrix(.09935 0 0 -.09935 128.1 121.9)" style="stroke-width:5.176;stroke:#5e6158">
        <path d="m0 0 16.58 9.572" style="fill:none;stroke-dasharray:93.15970439, 18.63194086, 18.63194086, 18.63194086, 18.63194086, 18.63194086;stroke-dashoffset:9.573;stroke-linecap:round;stroke-linejoin:round;stroke-miterlimit:10;stroke-width:2.64;stroke:#5e6158"/>
      </g>
      <g transform="matrix(.09935 0 0 -.09935 131.6 119.9)" style="stroke-width:5.176;stroke:#5e6158">
        <path d="m0 0 155.8 89.92" style="fill:none;stroke-dasharray:93.15970439, 18.63194086, 18.63194086, 18.63194086, 18.63194086, 18.63194086;stroke-dashoffset:9.069;stroke-linecap:round;stroke-linejoin:round;stroke-miterlimit:10;stroke-width:2.64;stroke:#5e6158"/>
      </g>
      <g transform="matrix(.09935 0 0 -.09935 139.1 132.7)" style="stroke-width:5.176;stroke:#5e6158">
        <path d="m0 0 229.6 132.6" style="fill:none;stroke-dasharray:93.15970439, 18.63194086, 18.63194086, 18.63194086, 18.63194086, 18.63194086;stroke-dashoffset:2.429;stroke-linecap:round;stroke-linejoin:round;stroke-miterlimit:10;stroke-width:2.64;stroke:#5e6158"/>
      </g>
      <g transform="matrix(.09935 0 0 -.09935 137.6 142.1)" style="stroke-width:5.176;stroke:#5e6158">
        <path d="m0 0 21.02-12.13" style="fill:none;stroke-dasharray:93.15970439, 18.63194086, 18.63194086, 18.63194086, 18.63194086, 18.63194086;stroke-dashoffset:14.87;stroke-linecap:round;stroke-linejoin:round;stroke-miterlimit:10;stroke-width:2.64;stroke:#5e6158"/>
      </g>
      <g transform="matrix(.09935 0 0 -.09935 139.1 142.4)" style="stroke-width:5.176;stroke:#5e6158">
        <path d="m0 0 5.744-3.316" style="fill:none;stroke-dasharray:93.15970439, 18.63194086, 18.63194086, 18.63194086, 18.63194086, 18.63194086;stroke-linecap:round;stroke-linejoin:round;stroke-miterlimit:10;stroke-width:2.64;stroke:#5e6158"/>
      </g>
      <g transform="matrix(.09935 0 0 -.09935 141.6 143.8)" style="stroke-width:5.176;stroke:#5e6158">
        <path d="m0 0 16.58-9.57" style="fill:none;stroke-dasharray:93.15970439, 18.63194086, 18.63194086, 18.63194086, 18.63194086, 18.63194086;stroke-dashoffset:9.571;stroke-linecap:round;stroke-linejoin:round;stroke-miterlimit:10;stroke-width:2.64;stroke:#5e6158"/>
      </g>
      <g transform="matrix(.09935 0 0 -.09935 108.1 125)" style="stroke-width:5.176;stroke:#5e6158">
        <path d="m0 0-22.91 13.23" style="fill:none;stroke-dasharray:93.15970439, 18.63194086, 18.63194086, 18.63194086, 18.63194086, 18.63194086;stroke-dashoffset:13.77;stroke-linecap:round;stroke-linejoin:round;stroke-miterlimit:10;stroke-width:2.64;stroke:#5e6158"/>
      </g>
      <g transform="matrix(.09935 0 0 -.09935 107.5 124.1)" style="stroke-width:5.176;stroke:#5e6158">
        <path d="m0 0-15.93 9.194" style="fill:none;stroke-dasharray:93.15970439, 18.63194086, 18.63194086, 18.63194086, 18.63194086, 18.63194086;stroke-dashoffset:9.195;stroke-linecap:round;stroke-linejoin:round;stroke-miterlimit:10;stroke-width:2.64;stroke:#5e6158"/>
      </g>
      <g transform="matrix(.09935 0 0 -.09935 104.1 122.1)" style="stroke-width:5.176;stroke:#5e6158">
        <path d="m0 0-13.38 7.724" style="fill:none;stroke-dasharray:93.15970439, 18.63194086, 18.63194086, 18.63194086, 18.63194086, 18.63194086;stroke-linecap:round;stroke-linejoin:round;stroke-miterlimit:10;stroke-width:2.64;stroke:#5e6158"/>
      </g>
      <g transform="matrix(.09935 0 0 -.09935 122.8 123.5)" style="stroke-width:5.176;stroke:#5e6158">
        <path d="m0 0v24.27" style="fill:none;stroke-dasharray:93.15970439, 18.63194086, 18.63194086, 18.63194086, 18.63194086, 18.63194086;stroke-dashoffset:14.86;stroke-linecap:round;stroke-linejoin:round;stroke-miterlimit:10;stroke-width:2.64;stroke:#5e6158"/>
      </g>
      <g transform="matrix(.09935 0 0 -.09935 123.3 122.1)" style="stroke-width:5.176;stroke:#5e6158">
        <path d="m0 0v6.634" style="fill:none;stroke-dasharray:93.15970439, 18.63194086, 18.63194086, 18.63194086, 18.63194086, 18.63194086;stroke-linecap:round;stroke-linejoin:round;stroke-miterlimit:10;stroke-width:2.64;stroke:#5e6158"/>
      </g>
      <g transform="matrix(.09935 0 0 -.09935 123.3 119.2)" style="stroke-width:5.176;stroke:#5e6158">
        <path d="m0 0v19.14" style="fill:none;stroke-dasharray:93.15970439, 18.63194086, 18.63194086, 18.63194086, 18.63194086, 18.63194086;stroke-dashoffset:9.572;stroke-linecap:round;stroke-linejoin:round;stroke-miterlimit:10;stroke-width:2.64;stroke:#5e6158"/>
      </g>
      <g transform="matrix(.09935 0 0 -.09935 122.8 143.6)" style="stroke-width:5.176;stroke:#5e6158">
        <path d="m0 0v-26.46" style="fill:none;stroke-dasharray:93.15970439, 18.63194086, 18.63194086, 18.63194086, 18.63194086, 18.63194086;stroke-dashoffset:13.77;stroke-linecap:round;stroke-linejoin:round;stroke-miterlimit:10;stroke-width:2.64;stroke:#5e6158"/>
      </g>
      <g transform="matrix(.09935 0 0 -.09935 123.3 144.4)" style="stroke-width:5.176;stroke:#5e6158">
        <path d="m0 0v-18.39" style="fill:none;stroke-dasharray:93.15970439, 18.63194086, 18.63194086, 18.63194086, 18.63194086, 18.63194086;stroke-dashoffset:9.195;stroke-linecap:round;stroke-linejoin:round;stroke-miterlimit:10;stroke-width:2.64;stroke:#5e6158"/>
      </g>
      <g transform="matrix(.09935 0 0 -.09935 123.3 148.5)" style="stroke-width:5.176;stroke:#5e6158">
        <path d="m0 0v-15.45" style="fill:none;stroke-dasharray:93.15970439, 18.63194086, 18.63194086, 18.63194086, 18.63194086, 18.63194086;stroke-linecap:round;stroke-linejoin:round;stroke-miterlimit:10;stroke-width:2.64;stroke:#5e6158"/>
      </g>
      <g transform="matrix(.09935 0 0 -.09935 130.7 149.3)" style="stroke-width:5.176;stroke:#5e6158">
        <path d="m0 0v-12.51" style="fill:none;stroke-dasharray:93.15970439, 18.63194086, 18.63194086, 18.63194086, 18.63194086, 18.63194086;stroke-linecap:round;stroke-linejoin:round;stroke-miterlimit:10;stroke-width:2.64;stroke:#5e6158"/>
      </g>
      <g transform="matrix(.09935 0 0 -.09935 130.7 152.7)" style="stroke-width:5.176;stroke:#5e6158">
        <path d="m0 0v-15.45" style="fill:none;stroke-dasharray:93.15970439, 18.63194086, 18.63194086, 18.63194086, 18.63194086, 18.63194086;stroke-linecap:round;stroke-linejoin:round;stroke-miterlimit:10;stroke-width:2.64;stroke:#5e6158"/>
      </g>
      <g transform="matrix(.09935 0 0 -.09935 130.7 155.7)" style="stroke-width:5.176;stroke:#5e6158">
        <path d="m0 0v-51.8" style="fill:none;stroke-dasharray:93.15970439, 18.63194086, 18.63194086, 18.63194086, 18.63194086, 18.63194086;stroke-dashoffset:1.102;stroke-linecap:round;stroke-linejoin:round;stroke-miterlimit:10;stroke-width:2.64;stroke:#5e6158"/>
      </g>
      <g transform="matrix(.09935 0 0 -.09935 115.9 140.7)" style="stroke-width:5.176;stroke:#5e6158">
        <path d="m0 0v-12.51" style="fill:none;stroke-dasharray:93.15970439, 18.63194086, 18.63194086, 18.63194086, 18.63194086, 18.63194086;stroke-linecap:round;stroke-linejoin:round;stroke-miterlimit:10;stroke-width:2.64;stroke:#5e6158"/>
      </g>
      <g transform="matrix(.09935 0 0 -.09935 115.9 144.2)" style="stroke-width:5.176;stroke:#5e6158">
        <path d="m0 0v-15.45" style="fill:none;stroke-dasharray:93.15970439, 18.63194086, 18.63194086, 18.63194086, 18.63194086, 18.63194086;stroke-linecap:round;stroke-linejoin:round;stroke-miterlimit:10;stroke-width:2.64;stroke:#5e6158"/>
      </g>
      <g transform="matrix(.09935 0 0 -.09935 115.9 147.1)" style="stroke-width:5.176;stroke:#5e6158">
        <path d="m0 0v-51.8" style="fill:none;stroke-dasharray:93.15970439, 18.63194086, 18.63194086, 18.63194086, 18.63194086, 18.63194086;stroke-dashoffset:1.102;stroke-linecap:round;stroke-linejoin:round;stroke-miterlimit:10;stroke-width:2.64;stroke:#5e6158"/>
      </g>
    </g>
    <g transform="matrix(-.1976 0 0 -.1976 236.1 55.11)" style="stroke-width:2.927;stroke:#f8fdec">
      <path d="m0 0 1033-130.1m17.1 31.7-1033 130.2m-17.3-682.4 1033-130.2m-982.5 723.5 932-117.4m0.3-527.7-927.7 116.9m-4.6-54.5 932-117.4m0.3 633.4v-633.7m-928 172.1v527.8m-54.6 57.5v-633.6m-16.8 652.7v-667.6m33.6 680.5v0.3m1016-145.4v-667.6m33.6 13.2v667.6m-335.2-642.6 75.6-71.9m48.9 20.3-43.4 41.4m-679.7 22.6 201.2 37.7m-112.5 14.1-112.8-21.1m698.3 631.9-1.2 0.8-1.4 0.6-0.6 0.1-0.7 0.2m0 0-43.2 5.4m0 0h-1.1l-0.5-0.1-0.4-0.2-0.3-0.2-0.1-0.3m-444.8 56-0.5 0.4-0.7 0.4-0.6 0.3-1.4 0.4-0.7 0.1m0 0-43.1 5.5m0 0h-1.2l-0.5-0.1-0.3-0.2-0.3-0.3-0.2-0.3m775.1-111.5-2.3 0.3m0 0-2.8-2.5m-1033 130.2 1033-130.2m-1030 132.6-2.7-2.4m0.4 2.7 2.3-0.3m-17.8 1.3 15.5-1m-15.5 1 12.7 11.2m13.6-2.7-13.6 2.7m15.9-3-2.3 0.3m5.1 2.2-2.8-2.5m2.8 2.5 1033-130.2m0 0-2.7-2.4m0 0 2.3-0.3m0 0 15.5-1m-12.8-11.2 12.8 11.2m-12.8-11.2-13.5 2.7m-6.5-16.7 0.1-0.7v-0.6l0.2-0.5 0.1-0.4 0.2-0.3 0.3-0.1h0.3m-1.2 12.2v-9.6m1.4 14.5-0.3-0.3-0.5-1-0.2-0.6-0.1-0.7-0.2-0.8v-0.8l-0.1-0.7m1.2 2.3-0.1-0.1-0.1-0.3v-0.3l-0.1-0.3v-0.6m0 0v-9.5m0 0v-0.6l0.1-0.2v-0.1l0.1-0.2h0.1m-1034 140 1033-130.1m-1032 135.1-0.3-0.3-0.3-0.5-0.2-0.5-0.4-1.4-0.1-0.7-0.1-0.8v-0.8m0-9.5 1033-130.2m-1033 139.7v-9.5m1040-113.5v-2.3m13.5-0.4v-2.2m-4.1 0.8-9.4 1.8m26.3 10.8v-2.2m-12.8-11.2 12.8 11.2m0-12.6-12.8 0.9m12.8-0.9-12.8-11.2m-1053 131v-0.7l0.2-1.2 0.2-0.4 0.4-0.4h0.1m1052-130.5v2.2m12.8 11.2v-2.2m0 0-12.8-11.2m-13.5 17.4-0.1 0.1m-1021 144.8-0.3-0.1-0.2-0.1m-15.9-11.7v-0.2m-13.3-1.2 11.1-0.7m1066-770.7-12.8-11.2m-20-4.4 0.1 0.7v0.8l0.2 0.7 0.1 0.7 0.2 0.7 0.5 1h0.1m-1.2-4.6-1033 130.1m0 0v0.8l0.1 0.7 0.1 0.8 0.2 0.7 0.4 1.2 0.3 0.4v0.1m1033-134.1v0.6l0.1 0.3v0.3l0.1 0.3 0.1 0.1m-0.3-11.2v9.6m0.3-10.6h-0.1l-0.1 0.1v0.2l-0.1 0.2v0.5m0.3-3.3h-0.1l-0.2-0.1-0.3 0.2-0.2 0.3-0.1 0.4-0.2 0.5v0.6l-0.1 0.7m0 0v9.6m0-9.6-1033 130.2m0 0v9.5m1053-127.9v2.2m12.8 11.2v-2.2m0 0-12.8-11.2m0-0.6 12.8-0.8m-12.8-11.2 12.8 11.2m-1065 117.1h-0.1l-0.2 0.1-0.2 0.3-0.2 0.4-0.1 0.5-0.1 0.7v0.7m1053-133.2v2.2m12.8 9v2.2m-12.8-13.4 12.8 11.2m-83.3 597.9v43.5m0 0v0.7l0.1 0.8 0.2 0.8 0.1 0.7 0.2 0.6 0.5 1 0.1 0.1m0-50.8-0.1-0.1h-0.2l-0.3 0.2-0.2 0.2-0.1 0.4-0.2 0.6-0.1 0.6v0.7m0.8 0.7v43.5m0.4-44.5h-0.1l-0.1 0.1-0.1 0.2v0.4l-0.1 0.3m0 43.5 0.1 0.3v0.6l0.2 0.6 0.1 0.1m-933.2 115.1 932-117.4m-932 117.4v0.8l0.1 0.7 0.1 0.8 0.2 0.7 0.4 1.2 0.3 0.4 0.1 0.1m-1.2-48.2 932-117.4m-932 117.4v43.5m0.9-46.2h-0.1l-0.2 0.2-0.2 0.3-0.2 0.4-0.1 0.5-0.1 0.6v0.7m933.2-652h-0.1l-0.2-0.5-0.3-0.5-0.2-0.7-0.1-0.7-0.2-0.7-0.1-0.8v-0.8m0 0-932 117.5m1.4 4.9-0.3-0.3-0.3-0.4-0.2-0.6-0.4-1.4-0.1-0.7-0.1-0.8v-0.7m932-160.9v-0.7l0.1-0.7 0.2-0.5 0.1-0.4 0.2-0.3 0.3-0.1h0.3m-1.2 46.1v-43.4m1.2 45.8-0.2-0.4-0.1-0.3v-0.6l-0.1-0.3m0 0v-43.5m0 0 0.1-0.3v-0.5l0.3-0.3m-1.2 0.4-932 117.4m0 43.5v-43.5m5 51.6-3.6-3.2m4.1 3.4-0.3-0.1-0.2-0.1m-5-51.6v-0.7l0.1-0.7 0.1-0.5 0.2-0.4 0.2-0.3 0.2-0.1h0.1m977.9 509.3v-633.7m0 633.7 0.8-0.1h1.5l0.8 0.1 0.6 0.2 0.6 0.1 0.5 0.2 0.1 0.1m-4.9-634.3h2.3l0.8 0.1 0.6 0.1 0.6 0.2 0.5 0.2h0.1m-48 638.5 43.1-5.4m-45.6 6.9v-0.3l0.1-0.2 0.2-0.3 0.4-0.2 0.5-0.2 0.6-0.2 0.7-0.1m-0.2 1.2v-0.1l0.1-0.1h0.2l0.4-0.2h0.3m0 0 43.2-5.5m0 0h1.2l0.3 0.1h0.1m-45.6 4.6v-633.6m0 0 43.1-5.5m-45.6 6.7v0l0.1-0.3 0.2-0.2 0.4-0.3 0.5-0.2 0.6-0.1 0.7-0.1m-934.6 118.9h-0.1l-0.4-0.2-0.6-0.2-1.4-0.2-0.8-0.1-0.7 0.1h-0.8m0 0v633.7m4.8 0.5h-0.1l-0.4-0.2-0.6-0.2-1.4-0.2h-1.5l-0.8 0.1m0 0-43.1 5.4m0 0-0.7 0.1-1.2 0.4-0.3 0.2-0.3 0.3-0.1 0.2 0.1 0.3m46.4-6.2-43.1 5.5m44.8-5.4h-0.2l-0.2-0.1h-1.3m-43.1 5.5h-0.3l-0.2 0.1h-0.2l-0.2 0.1-0.1 0.1v0.1m43.3-640.3-43.1 5.5m0 0v633.6m0-633.6-0.7 0.1-0.6 0.1-0.6 0.2-0.3 0.3-0.3 0.2-0.1 0.3m0-16.7h-0.1l-0.4-0.2-0.6-0.2-1.4-0.2-0.8-0.1-0.8 0.1h-0.7m0 0v667.6m5.1 0.8-0.4-0.2-0.4-0.3-0.6-0.1-1.4-0.2-0.8-0.1-0.8 0.1h-0.7m7.8 3.2-2.7-2.4m-5.1-0.8-9.5 1.2m0 0-0.7 0.1-0.6 0.2-0.5 0.2-0.4 0.2-0.2 0.2-0.1 0.3v0.3l0.2 0.2m0 0 1.8 1.6m2.2-0.3-2.2 0.3m0.4-1.9 1.8 1.6m-0.8-2.3-0.6 0.2h-0.2l-0.3 0.3v0.1l0.1 0.1m10.4-1.9-9.4 1.2m11.5-0.8-0.2-0.1-0.1-0.1-0.3-0.1h-0.3l-0.3-0.1h-0.9m4.8 2.8-2.7-2.4m4.9 2.1-2.2 0.3m-5.6-671.1-9.5 1.2m0 0v667.6m30.9 14-2.8-2.5m-28.1-679.1-0.7 0.1-0.6 0.2-0.5 0.2-0.4 0.2-0.2 0.2-0.1 0.3m16.9 680.5v0.1m0 0 1.8 1.6m-14.5-15.2v2.4m24.2 8.8 2.2-0.3m-0.3 3.4h0.2l0.3-0.1 0.4-0.2 0.1-0.1v-0.2l-0.1-0.1m-10.4 1.9 9.5-1.2m-11.6 0.9 0.6 0.3h0.6l0.3 0.1 0.3-0.1h0.3m-6.1-1.6 2.2-0.3m-0.4 1.9 0.4 0.2 1 0.4 1.4 0.2h2.3m0 0 9.5-1.2m0 0 0.7-0.2 0.6-0.1 0.5-0.2 0.4-0.2 0.2-0.3 0.1-0.2v-0.3l-0.2-0.2m-18.7 0.5 1.8 1.6m14.7-1.9-2.8-2.4m-13.7-12v0.5m1047-133.8v-667.6m0 667.6h2.3l1.4 0.2 1 0.4 0.4 0.2m0 0v-667.6m-5.1-0.8h2.3l1.4 0.2 1 0.4 0.4 0.2m0 667.6 1.7 1.6m-16.3-1.2 9.5-1.2m-11.8 2.9-0.2-0.2v-0.3l0.1-0.2 0.2-0.3 0.4-0.2 0.5-0.2 0.6-0.1 0.7-0.2m0.5 4.2-2.8-2.5m2.8 2.5 2.2-0.3m0 0-2.8-2.4m0 0-0.1-0.1v-0.3l0.1-0.1h0.2l0.2-0.1 0.3-0.1h0.2m0 0 9.5-1.2m0 0 0.3-0.1h0.3l0.3 0.1h0.6l0.6 0.3m0 0 1.8 1.6m0 0 2.1-0.3m-16.3-1.2v-667.6m0 0 9.5-1.2m5.1 0.8 1.7 1.6m0 650.6v17m0-17 12.8 11.2m0 0v17m0 0 1.8 1.6m0 0v-667.6m-1.8-1.6 1.8 1.6m-1.8 15.4v-17m-12.8 5.8 12.8 11.2m-12.8-11.2v-17m-18.8 0.1v-0.1l0.1-0.2 0.2-0.3 0.4-0.2 0.5-0.2 0.6-0.1 0.7-0.2m2.7 668.1v3.4m13.5 11.9-2.7-2.4m5.6 3.5h-0.7l-0.8 0.1-0.8-0.1-1.4-0.2-0.6-0.2-0.8-0.4m14.6-0.4-9.5 1.2m11.8-2.9 0.2 0.2v0.3l-0.1 0.3-0.2 0.2-0.4 0.2-0.5 0.2-0.6 0.2-0.7 0.1m0.5-3.3-2.2 0.3m1.8 1.6 0.1 0.1v0.1l-0.3 0.3h-0.2l-0.6 0.2m0 0-9.4 1.1m0 0-0.3 0.1h-0.6l-0.3-0.1h-0.3l-0.3-0.1-0.1-0.1-0.2-0.1m-2.7-2.4-2.2 0.3m2.7 2.4-2.7-2.4m15.6-1 1.8 1.6m-1.8-16.5v10.5m0 4.3v0.1m-15.6-13.1v0.4m19.6-653.6 0.2 0.2v0.3m-4.2 0.6-8.6 1m0 0-0.3 0.1h-0.6l-0.3-0.1h-0.3l-0.3-0.1-0.1-0.1h-0.1m10.6 9.3v-10.4m-256.4-35.3v0.8l0.6 1.4 0.5 0.6 0.5 0.5 0.7 0.4 0.7 0.3 0.7 0.2m0 0 43.5 5.1m0 0h0.7l0.7-0.1 0.7-0.3 0.5-0.4 0.5-0.5 0.4-0.6 0.2-0.7v-0.7m0 0v-9.5m0 0v-0.8l-0.2-0.7-0.4-0.7-0.5-0.6-0.5-0.5-0.7-0.4-0.7-0.3-0.7-0.2m0 0-43.5-5.1m0 0h-0.7l-0.7 0.1-0.7 0.3-0.5 0.4-0.5 0.5-0.3 0.6-0.3 0.7v0.7m0 0v9.5m3.7 2 43.5 5.1m-45-6.8v0.3l0.2 0.6 0.4 0.4 0.3 0.2 0.6 0.2m-1.5-11.2v9.5m1.5-10.9h-0.3l-0.6 0.2-0.2 0.1-0.2 0.3-0.1 0.2-0.1 0.3v0.3m45 3.7-43.5-5.1m45 6.8v-0.3l-0.2-0.6-0.4-0.4-0.3-0.2-0.6-0.2m1.5 11.2v-9.5m-1.5 10.9h0.3l0.6-0.2 0.2-0.1 0.2-0.3 0.1-0.2 0.1-0.3v-0.3m-745.2 97.3 22.5-13.4m0 0 0.4-0.3 0.4-0.4 0.6-1.2 0.2-0.7 0.2-0.8 0.1-0.7 0.1-0.8m0 0v-9.5m0 0-0.2-1.4-0.2-0.5-0.2-0.4-0.3-0.3-0.3-0.2h-0.4l-0.4 0.2m0 0-22.5 13.4m0 0-0.4 0.3-0.4 0.4-0.6 1.2-0.2 0.7-0.2 0.8-0.1 0.7-0.1 0.8m0 0v9.5m0 0 0.1 0.7 0.1 0.6 0.2 0.6 0.2 0.4 0.3 0.3 0.3 0.1h0.4l0.4-0.1m0-2.2 22.5-13.4m-23.3 12.3v0.6l0.2 0.4 0.1 0.1h0.5m-0.8-10.6v9.5m0.8-11.5-0.2 0.1-0.1 0.2-0.2 0.2-0.3 0.9v0.6m23.3-15.4-22.5 13.4m23.3-12.4v-0.2l-0.1-0.3v-0.2l-0.1-0.2-0.1-0.1-0.2-0.1h-0.1l-0.2 0.1m0.8 10.6v-9.6m-0.8 11.6 0.5-0.5 0.2-0.6v-0.3l0.1-0.3v-0.3m670.3 650.1v1.2m-43.2 4.3v1.1m-451.1 55.7v1.1m-43.1 4.3v1.2m767.1-129.3h0.2m0-650.6h-0.2m-50.7 611.8 0.4-0.1m-0.2-5.6h0.2m-0.4 3.6h0.4m0-537.7-931.8 117.4m931.8-113.8-928.2 117m928.2-163.6h-0.4m0.4-5.7h-0.2m0.2 3.6-0.4 0.1m8.4 626.5v-0.3m-5.6 1v-0.1m3.6-0.4v-0.3m-937.8-464v531.6m3.6-528.4v527.9m-46.3 56.5v0.3m-5.6 0.6v0.1m3.5-0.8v0.3m-20.4 19.5v0.3m16.3 12.3v2.1m11.6-2.4v1.5m-9.5-1.6v2.8m1032-146.9v-0.4m16.3 14.7v-2.6m11.5 1.8v-1.6m-9.4 2.7v-3m0-12.4v-2.4m0-648.2v-1.6m-309 21.7 61.2-58.3m-51.9 57.1 55.6-52.9m0.7 45.9 42.8-40.8m-120 50.5 72.8-69.3m2.2 0.4 1.5-1.5m31.8 16.3 11.7-11.2m0.1 12.6 1.4-1.4m-10.3 0.3 10.3-9.8m-575.9 120.8-146.8-27.4m163.5 25.3-161.5-30.2m192 26.4-192-35.9m88.5 48.9-113-21.1m23.1-28.1-0.6-0.1m-6.5 16.4-16-3m1.1 11.9-1.9-0.4m14.1-6.9-14.1-2.6" style="fill:none;stroke-linecap:round;stroke-linejoin:round;stroke-width:2.927;stroke:#f8fdec"/>
    </g>
  </g>
</svg>
