<?xml version="1.0" encoding="UTF-8"?>
<svg width="1e3" height="1e3" version="1.1" viewBox="0 0 264.583 264.583" xmlns="http://www.w3.org/2000/svg">
  <g transform="translate(0 -32.4166)">
    <rect x="-5.08626e-6" y="32.4166" width="264.583" height="264.583" style="fill:#fdfe81"/>
    <path d="m87.0682 119.268 1.41464 0.81623v3.08286m-13.7239 64.8813c-0.526881-0.85079 0.02927-2.35972 0.580927-3.20912 0.664096-1.02252 2.22924-2.25315 3.27575-1.62752 0.0994 0.0594 0.185364 0.13177 0.258741 0.215 0.03725 0.0423 0.07126 0.0873 0.102108 0.13498m0.236249 0.36805-0.236249-0.36805m-3.9797 4.85719-0.237829-0.37053m0.665425 0.77634c-0.187003-0.10519-0.327012-0.24353-0.427596-0.40581-0.527275-0.85073 0.02896-2.36 0.580699-3.20949 0.664099-1.02254 2.22925-2.25317 3.27576-1.62752 0.149125 0.0891 0.268055 0.20732 0.359495 0.34787 0.508619 0.78181 0.166285 2.25575-0.564756 3.27556-1.05712 1.47466-2.42965 2.06609-3.2236 1.61939zm54.2004 14.985-2e-5 6.20536 5.07932-3.31577 5.36575-3.49422 5.58639-3.62148 5.7411-3.69753 5.82992-3.72249 5.85293-3.69626 5.80996-3.61882 5.70132-3.49025 5.52656-3.31052 5.28577-3.07955 4.98023-2.79798 4.60708-2.46431 4.16949-2.08023 3.66565-1.6449 3.09569-1.1581 2.45952-0.62002 1.67733-0.20077 1.49346-0.0473 1.326 0.10069 1.17664 0.24201 1.0464 0.37643 0.93252 0.50512 0.83763 0.62687 0.76011 0.74253 0.70076 0.85174 0.6595 0.95428 0.63559 1.05091 0.62986 1.14091 0.6422 1.22434 0.67276 1.30127 0.7206 1.37211 0.78667 1.43654 0.15305 0.27708 0.15375 0.27833 0.15469 0.2759 0.15736 0.26862 0.162 0.25657 0.16849 0.2398 0.17675 0.21813 0.18604 0.19225 0.19632 0.16203 0.21019 0.12609 0.22423 0.0864 0.24006 0.0418 0.25778-8e-3m0 3e-5 0.2774-0.0616 0.29794-0.11995 0.32035-0.1831 0.45912-0.29682 0.43101-0.27748 0.40191-0.26184 0.36999-0.24918 0.337-0.24028 0.30207-0.23481 0.26526-0.23258 0.22736-0.23416 0.18666-0.2387 0.14577-0.24754 0.1012-0.25869 0.0565-0.27418 0.01-0.29294m-6e-5 0-0.0387-0.31516-0.0893-0.34067-0.14176-0.36954-1.06875-2.32514-1.05932-2.05077-1.05715-1.79307-1.06476-1.55019-1.07962-1.32396-1.10258-1.11374-1.13448-0.91897-1.17371-0.74092-1.22182-0.57827-1.27807-0.43169-1.34242-0.30113-1.41489-0.18666-1.49626-0.0876-1.58496-5e-3 -1.68169 0.0612-1.7874 0.11213-0.78017 0.0747-0.7388 0.10637-0.7022 0.13577-0.67118 0.16349-0.64231 0.18748-0.61987 0.21032-0.60049 0.22995-0.58578 0.24743-0.57497 0.2621-0.56885 0.27474-0.56754 0.28496-0.56916 0.29221-0.57641 0.29758-0.58671 0.29983-0.60247 0.30048-0.62137 0.29777-4.25994 2.50752-4.26345 2.49752-4.26731 2.48881-4.27268 2.48149-4.28009 2.47664-4.28831 2.47286-4.29785 2.47089-4.30889 2.4704-4.32107 2.47167-4.3346 2.47464-4.34936 2.47913-4.36563 2.48527-4.38294 2.49296-4.40179 2.50246-4.4218 2.51344-4.44306 2.52617m-2e-5 6.20537-0.70714-0.40821m86.0581-44.9785 0.48102 0.36116 0.76096 0.74204 0.70076 0.85172 0.65865 0.95482 0.63647 1.05037 0.62983 1.14094 0.6422 1.22434 0.67191 1.30175 0.7206 1.37213 0.78667 1.43651 0.15386 0.27652 0.15294 0.27889 0.15469 0.27593 0.15824 0.26809 0.16199 0.25659 0.16846 0.23978 0.17586 0.21855 0.18604 0.19225 0.19724 0.16163m1.62396 0.94282-1.41463-0.81621m-0.20933-0.12661 0.20933 0.12661m-2.68414-15.6091-1.41464-0.81625-1.22188-0.57833-1.27807-0.43171-1.34242-0.30113-1.41483-0.18658-1.49541-0.0881-1.58495-5e-3 -1.68255 0.0617-1.78739 0.11213-0.77934 0.0742-0.7388 0.10634-0.70304 0.13629-0.67036 0.16289-0.64313 0.18808-0.6199 0.21031-0.60046 0.22995-0.58578 0.24743-0.57497 0.26213-0.5689 0.27462-0.56665 0.28454-0.57 0.29272-0.57557 0.2971-0.58755 0.30031-0.60165 0.29992-0.62224 0.29825-4.25995 2.50755-4.26251 2.4971-4.26732 2.48877m-4.27355 2.48201 1.41464 0.81624v3.08286m2.85891-6.38111-4.27355 2.48201-4.27967 2.47641-4.28831 2.47286-4.2979 2.47077-4.30883 2.47049-4.32108 2.47168-4.3346 2.47466-4.34935 2.4791-4.36564 2.48528-4.38294 2.49295-4.40179 2.50247-4.42177 2.51344m-3.02887 3.34267-0.70716-0.40824 1.23749-0.70361m2.49854-2.23082-3.17297 1.80407m-0.57604 1.13787-6e-5 6.4503 0.22519-0.12999m-0.21221-0.12243v-6.20537m1.23749-0.71445v0.0107m-1.25047 0.71111 1.25047-0.72195-1.29599-0.79928-0.69627-0.4294m-4.25162 22.3972-0.65817 0.055m1.00349-0.2669-0.34532 0.21186m0.61888-0.72844-0.27356 0.51658m0.48461-1.29326-0.21105 0.77668m0.36881-1.76925-0.15776 0.99257m0.27127-2.15634-0.11351 1.16377m0.19214-2.45438-0.0786 1.29061m0.13157-2.66353-0.053 1.37292m0.0893-2.78372-0.0364 1.4108m0.0656-2.81503-0.0292 1.40423m0.0602-2.75745-0.031 1.35322m0.0733-2.61092-0.0422 1.2577m0.10473-2.37541-0.0625 1.11771m0.1546-2.05099-0.0921 0.93328m0.22293-1.63765-0.13084 0.70437m0.30971-1.13536-0.17887 0.43099m0.41487-0.54427-0.236 0.11328m0.50405-0.0482-0.26805-0.0651m0.5354 0.13798-0.26735-0.0729m0.53165 0.15203-0.2643-0.0792m0.52335 0.16287-0.25905-0.0837m0.51049 0.17041-0.25144-0.0867m0.49299 0.17447-0.24155-0.0878m0.471 0.17517-0.22945-0.0874m0.44436 0.17266-0.21491-0.0853m0.41308 0.16691-0.19817-0.0817m0.37747 0.15757-0.1793-0.0759m0.33718 0.14481-0.15788-0.0689m0.29218 0.12889-0.1343-0.06m0.24271 0.10975-0.10841-0.0498m0.18873 0.0871-0.0803-0.0373m0.13019 0.0619-0.0499-0.0246m0.067 0.0328-0.0172-8e-3m0.0172-6.44206-1.39799-0.74038-1.39799-0.74041-1.39801-0.74039-1.39794-0.74032-0.0597-0.0316m0.1412 3.51296-0.14122-0.28902m0.24482 1.23009-0.1036-0.94107m0.2023 2.06858-0.0987-1.12751m0.18914 2.40781-0.0905-1.2803m0.16919 2.67947-0.0787-1.39917m0.14213 2.88355-0.0634-1.48438m0.10815 3.02029-0.0448-1.53591m0.0672 3.0894-0.0223-1.55349m0.0192 3.09106 3e-3 -1.53757m-0.0353 3.02517 0.0322-1.4876m-0.0971 2.89165 0.0649-1.40405m-0.16581 2.69082 0.10093-1.28677m-0.24133 2.4224 0.1404-1.13563m-0.32379 2.08641 0.18339-0.95078m-0.30173 1.32797 0.11834-0.37719m4.49541-19.7547-0.34121-0.18821m0.63728 0.3482-0.29607-0.15999m-4.61372 22.6122-0.43462 0.0342m1.09279-0.0892 1.45986-0.84286m0.33858-0.20797-0.33858 0.20797m-1.11453 0.63099 1.45311-0.83896m0.26819-0.51347-0.26819 0.51347m-1.17955 0.32238 1.44774-0.83585m0.20696-0.77434-0.20696 0.77434m-1.23669 0.0592 1.44365-0.83352m0.15465-0.99074-0.15465 0.99074m-1.28589-0.15906 1.44054-0.83168m0.11134-1.16253-0.11134 1.16253m-1.32703-0.33209 1.43837-0.83044m0.0771-1.28973-0.0771 1.28973m-1.35975-0.46016 1.43683-0.82957m0.0519-1.3723-0.0519 1.3723m-1.38388-0.54336 1.43578-0.82894m0.0357-1.41041-0.0357 1.41041m-1.3994-0.58186 1.43507-0.82855m0.0286-1.40385-0.0286 1.40385m-1.40589-0.57567 1.43448-0.82818m0.0305-1.35289-0.0305 1.35289m-1.40344-0.52505 1.43389-0.82784m0.0414-1.25725-0.0414 1.25725m-1.39167-0.42986 1.4331-0.82739m0.0613-1.117-0.0613 1.117m-1.37058-0.29032 1.43188-0.82668m0.0903-0.93224-0.0903 0.93224m-1.3398-0.1066 1.43008-0.82564m0.0308-0.16846-0.0308 0.16846m-1.29924 0.12127 0.7828-0.45195m1.1745-7.78713-1.37073-0.75616-1.37066-0.75605m-1.53115 0.81797-1.32531-0.71631m2.85646-0.10166-1.3707-0.75615m-5.44398 0.55795-1.02952-0.64414m2.42971 1.56133-1.40019-0.91719m2.66429 1.79829-1.2641-0.8811m2.34537 1.70434-1.08127-0.82324m1.93277 1.56727-0.8515-0.74403m1.42636 1.3873-0.57486-0.64327m0.68645 0.87455-0.11159-0.23128m-1.2137-3.70897-1.3843-0.74831-1.38441-0.74823-1.3843-0.74831-0.83473-0.45119m6.20265 24.7811 0.1104-0.35438m-5.76216 1.96009-0.55084-0.14594m1.61017 0.3753-1.05933-0.22936m2.11938 0.40324-1.06005-0.17388m2.12324 0.28854-1.06319-0.11466m2.13185 0.16626-1.06866-0.0516m2.145 0.0365-1.07634 0.0149m1.12356-1.69691 0.27697-0.47829m-0.60686 0.67011 0.32989-0.19182m-1.34555 0.26763 1.01566-0.0758m-2.01324 0.0906 0.99758-0.0147m-1.98039-0.0285 0.98281 0.0433m-1.95424-0.14191 0.97143 0.0986m-1.93497-0.24968 0.96354 0.15107m-1.62823-0.29015 0.66469 0.13908m5.80873-23.4106-1.37073-0.75613-1.3707-0.75616-0.62401-0.34419m2.96181 24.6852 0.17215-0.0121m-1.15993 0.0212 0.98778-9e-3m-1.96091-0.0398 0.97313 0.0489m-1.93495-0.15305 0.96182 0.10414m-1.00096-0.11052 0.0392 6e-3m-3.14715-22.771-0.45517-0.2904m1.2899-1.01044 1.53399-0.88564m0.73934 0.41619-0.73934-0.41619m-2.71424-1.52801 2.71424 1.52801m-4.28365-0.62191 1.56941-0.9061m-0.19869 1.66226-1.37072-0.75616m1.91493 1.05636-0.54421-0.3002m-4.40015-0.93286-1.31059-0.75322m2.77151 1.60861-1.46092-0.85539m2.97273 1.7609-1.51181-0.90551m3.02827 1.8393-1.51646-0.93379m0.0567-1.5842-1.3707-0.7561-1.37072-0.75616-1.37078-0.75607-0.22779-0.12573m6.25498 29.6913-0.50501-0.13812m5.08508-0.57576 1.48974-0.8601m-2.48731 0.87486 1.49953-0.86574m-2.48234 0.82245 1.50921-0.87137m-2.48065 0.77279 1.51884-0.87693m-0.94502-0.16176 0.90587 0.15539m-2.44322 0.7322 1.53735-0.88759m-2.49352 0.68526 0.29148 0.0632m1.2619-0.96009 0.94014 0.21159m-2.49352 0.68526 1.55338-0.89685m-7.12219-0.12759-0.39475-0.18491m1.48717 0.67462-1.09242-0.48971m2.17187 0.94638-1.07945-0.45667m2.14817 0.87656-1.06872-0.41989m2.12911 0.79931-1.06039-0.37942m2.11466 0.71447-1.05427-0.33505m0.31928-0.97415 0.94855 0.2529m-1.8995-0.5498 0.95095 0.2969m-1.9076-0.63486 0.95665 0.33796m-1.92244-0.71416 0.96579 0.3762m-1.94411-0.78791 0.97832 0.41171m-1.97254-0.85612 0.99422 0.44441m-1.1633-0.52349 0.16908 0.0791m5.74035-24.8889-1.35709-0.76395-1.35713-0.764-1.35709-0.76398-0.22053-0.12412m4.96017 28.2698 0.93918 0.25831m-1.8807-0.56066 0.94152 0.30235m-1.88872-0.64576 0.9472 0.34341m-1.90337-0.72514 0.95617 0.38173m-1.92469-0.79908 0.96852 0.41735m-1.95297-0.86744 0.98445 0.45009m-1.14673-0.52776 0.16228 0.0777m-1.7799-23.9827-0.0523-0.0307m0.0524-1.43349-1.13157-0.63698m2.74913-0.29111-1.12516-0.64648m-5.50466 0.20545-1.18409-0.64171m2.44943 1.34538-1.26534-0.70367m1.44373 0.80225-0.17839-0.0986m0.68304 0.37981-0.50465-0.28123m1.28951 0.72308-0.78486-0.44185m1.80401 1.02227-1.01915-0.58042m2.22667 1.27728-1.20752-0.69686m0.1283-1.37361-1.35712-0.76397-1.35712-0.76398-1.376-0.75672-0.97452-0.51034m11.2113 31.676 1.56275-0.90226m-6.57776-0.0542-0.70592-0.33813m4.76998 0.99768 1.57218-0.90771m-2.52883 0.56975 1.58163-0.91316m-2.54742 0.53696 1.59125-0.91869m-2.56957 0.50698 1.60105-0.92433m-2.59527 0.47992 1.61082-0.93001m-2.61598 0.45099 0.83609 0.39994m0.78486-1.33579 0.83275 0.40719m-2.4537 0.52866 1.62095-0.93585m-6.1713-0.39979-0.80989-0.44775m2.08672 1.11989-1.27683-0.67214m2.43258 1.26336-1.15575-0.59122m2.28958 1.16405-1.13383-0.57283m2.24793 1.1239-1.1141-0.55107m-0.042-1.00773 1.02594 0.50718m-2.07775-1.03855 1.05181 0.53137m-2.13272-1.08441 1.08091 0.55304m-2.28036-1.18451 1.19945 0.63147m-2.20156-1.18519 1.00211 0.55372m5.68661-25.2493-1.34352-0.77183-1.34352-0.77185-1.36223-0.76465-1.36674-0.7309-1.12994-0.57508m5.82276 29.6377 1.01563 0.51311m-2.05686-1.0506 1.04123 0.53749m-2.11142-1.09671 1.07019 0.55922m-2.25753-1.19772 1.18734 0.6385m-2.35673-1.29794 1.16939 0.65944m-2.31459-1.3346 1.1452 0.67516m-1.35452-0.80394 0.20932 0.12878m-0.35221-23.3899-0.0354-0.0198m2.38591-0.13445 1.65116-0.95332m-3.02717 0.1966 1.66494-0.96125m-2.63945 0.45091-0.40194-0.21494 1.67465-0.96687m-1.67465 0.96687-1.36963-0.69709-1.37109-0.66198-0.89027-0.4064m0.5866 1.61561-0.58654-0.27892m1.69404 0.83015-1.1075-0.55123m2.24245 1.13947-1.13495-0.58824m2.30344 1.21508-1.16849-0.62684m5.53816 28.048 1.63125-0.94178m-5.96556-0.33443-0.44317-0.25002m3.72567 0.99486 1.64183-0.9479m-2.72274 0.39486 1.65255-0.95408m-2.852 0.32261 1.66466-0.96111m-2.84409 0.30745 0.17732 0.0999m-0.17732-0.0999 1.6747-0.96689m-2.81982 0.2917 1.14512 0.67519m-2.25959-1.36048 1.11447 0.68529m-2.19196-1.37541 1.07749 0.69012m-1.59599-1.03578 0.5185 0.34566m-0.48127 0.70765-0.0373-0.0248m1.18428 0.76104-1.14703-0.73612m2.33352 1.46677-1.18649-0.73065m2.40544 1.45014-1.21895-0.71949m-0.10941-27.4889 1.67705-0.96825m0.23729 0.12339-0.23729-0.12339-1.35724-0.66999-1.35721-0.63396-1.35576-0.59704-1.35278-0.55928-1.34831-0.52056-0.58745-0.21048m6.13083 30.8495 1.67462-0.96687m-1.10527-0.69059 0.89594 0.56181m-2.57976 0.41035 1.68382-0.97216m-1.0666-0.69639 1.0666 0.69639m-2.09031-1.39192 1.02371 0.69553m-1.99822-1.38461 0.97451 0.68908m-1.89368-1.36633 0.919167 0.67725m-1.77659-1.33714 0.85742 0.65989m-1.64688-1.29689 0.78946 0.637m-1.50458-1.24581 0.71512 0.60881m-1.06931-0.9297 0.35419 0.32089m3.95642-21.0305 1.6909-0.97626m-2.58117 0.56986-0.463837-0.22939 1.6878-0.97443m-21.8481-6.46709 0.410379 0.23165m-0.81407-0.46728 0.403691 0.23563m-0.799143-0.47405 0.395452 0.23842m-0.781278-0.47868 0.385826 0.24026m-0.76056-0.48082 0.374734 0.24056m-0.736909-0.48042 0.362175 0.23986m-0.71024-0.47758 0.348065 0.23772m-0.68058-0.47216 0.332515 0.23444m-0.648012-0.4644 0.315497 0.22996m-0.612563-0.4543 0.297066 0.22434m-0.574096-0.44162 0.27703 0.21728m-0.532667-0.42649 0.255637 0.20921m-0.488357-0.40902 0.23272 0.19981m-0.441085-0.3891 0.208365 0.18929m-0.390877-0.36669 0.182512 0.1774m-1.41021-1.39776 1.2277 1.22036m-2.47122-2.41286 1.24353 1.1925m-2.50139-2.35639 1.25786 1.16389m-2.52868-2.29839 1.27082 1.1345m-2.55312-2.23901 1.28231 1.10451m-2.57469-2.17817 1.29238 1.07366m-2.59337-2.11579 1.30099 1.04213m-2.60914-2.05192 1.30816 1.00979m-2.62213-1.98659 1.31397 0.9768m-2.63223-1.91982 1.31826 0.94302m-2.63937-1.85146 1.32111 0.90844m-1.785-1.21474 0.463889 0.3063m-0.463889 1.03039 0.481415 0.30841 1.03186 0.68668 1.02201 0.70665 1.01772 0.7311 1.01916 0.76005 1.02616 0.79341 1.03864 0.83101 1.05689 0.87325 1.08057 0.91962 1.11001 0.97065 1.14492 1.02599 0.162843 0.16383 0.168768 0.17252 0.171648 0.18229 0.17159 0.19343 0.168318 0.20558 0.162136 0.21908 0.152797 0.2336 0.140489 0.24949 0.125081 0.26647 0.106625 0.28462 0.08512 0.30407 0.06059 0.32458 0.03299 0.34643 0.0028 0.3694-0.03133 0.39347-0.0681 0.41888m0-3e-5 -0.501226 1.90297-0.465892 1.69759-0.4342 1.50583-0.406175 1.32791-0.381704 1.16374-0.360878 1.01344-0.343662 0.87677-0.330144 0.75388-0.320152 0.64487-0.313888 0.54946-0.31115 0.46798-0.312166 0.40008-0.316682 0.34612-0.324837 0.3059-0.33672 0.27929-0.352099 0.26667-0.243361 0.10795-0.346343 0.0463-0.443174-0.0138-0.533852-0.0726-0.618461-0.12974-0.696921-0.18539-0.769223-0.23958-0.835604-0.29227-0.895633-0.34349-0.949677-0.39314-0.497474-0.22005m-2.8e-5 1.02839 1.02616 0.45235 1.01103 0.41659 0.953487 0.36344 0.889508 0.3087 0.818925 0.25247 0.741905 0.1946 0.658397 0.13524 0.568367 0.0743 0.471734 0.0116 0.368723-0.0524 0.259109-0.11808 0.380746-0.3398 0.373944-0.43829 0.367652-0.52877 0.361807-0.61152 0.356505-0.68631 0.351761-0.75319 0.347501-0.81227 0.343662-0.86351 0.340471-0.90672 0.337709-0.94217 0.335476-0.96978 0.333756-0.98944 0.332599-1.00113 0.331894-1.00508 0.331668-1.00118 0.332005-0.98933 0.12638-0.23385 0.189286-0.15604 0.246634-0.0845 0.298394-0.0195m0-3e-5 0.344678 0.0391 0.385488 0.0915 0.420708 0.13758 0.450398 0.17715 0.474586 0.21051 0.493268 0.23746 0.506391 0.2581 0.513956 0.27228 0.516128 0.28031 0.512598 0.28185 0.503656 0.27698 0.489175 0.26582m0.489148 0.29899-0.489148-0.29899m0.992857 0.60367-0.503709-0.30468m1.01634 0.6147-0.51263-0.31002m1.02867 0.62569-0.516043-0.31567m1.03002 0.63678-0.513982-0.32111m1.0204 0.64778-0.506421-0.32667m0.99966 0.65874-0.493239-0.33207m0.967766 0.66963-0.474527-0.33756m0.925039 0.68043-0.450512-0.34287m0.871165 0.69111-0.420653-0.34824m0.80614 0.70186-0.385487-0.35362m0.730221 0.71255-0.344734-0.35893m0.643073 0.72306-0.298339-0.36413m0.544943 0.7335-0.246604-0.36937m0.43589 0.74399-0.189286-0.37462m0.315693 0.75438-0.126407-0.37976m0.458444 1.75243-0.332037-1.37267m0.663676 2.75689-0.331639-1.38422m0.663533 2.7725-0.331894-1.38828m0.664464 2.77348-0.33257-1.3852m0.66635 2.76002-0.33378-1.37482m0.66926 2.73194-0.33548-1.35712m0.67319 2.68926-0.33771-1.33214m0.67815 2.63203-0.34044-1.29989m0.68416 2.56021-0.34372-1.26032m0.69119 2.47385-0.34747-1.21353m0.69921 2.3729-0.35174-1.15937m0.70827 2.25735-0.35653-1.09798m0.71834 2.12727-0.36181-1.02929m0.72946 1.98259-0.36765-0.9533m0.74159 1.82336-0.37394-0.87006m0.75472 1.64953-0.38078-0.77947m0.63988 1.19673-0.2591-0.41726m0.6278 0.89538-0.3687-0.47812m0.84046 1.01115-0.47176-0.53303m1.04007 1.11503-0.56831-0.582m1.22674 1.20706-0.65843-0.62506m1.4003 1.2871-0.74187-0.66204m1.56091 1.35532-0.81904-0.69328m1.70849 1.41159-0.88945-0.71831m1.84294 1.45587-0.95349-0.73756m1.96452 1.48844-1.01103-0.75088m2.03711 1.48336-1.02608-0.73248m0.52869-0.65026 0.497417 0.35438m-1.44709-1.05777 0.94967 0.70339m-1.84536-1.39421 0.89569 0.69082m-1.73124-1.36336 0.83555 0.67254m-1.60483-1.3212 0.76928 0.64866m-1.46618-1.26797 0.6969 0.61931m-1.31539-1.20376 0.61849 0.58445m-1.15233-1.12829 0.53384 0.54384m-0.97699-1.04168 0.44315 0.49784m-0.7895-0.94404 0.34635 0.4462m-0.58973-0.83521 0.24338 0.38901m-0.59548-1.06219 0.3521 0.67318m-0.68882-1.34129 0.33672 0.66811m-0.66159-1.34908 0.32487 0.68097m-0.64155-1.39277 0.31668 0.7118m-0.62879-1.47233 0.31211 0.76053m-0.62329-1.58781 0.31118 0.82728m-0.62507-1.73919 0.31389 0.91191m-0.63407-1.92645 0.32018 1.01454m-0.65029-2.14963 0.33011 1.13509m-0.6738-2.40874 0.34369 1.27365m-0.70457-2.70372 0.36088 1.43007m-0.74256-3.03459 0.38168 1.60452m-0.78785-3.40143 0.40617 1.79691m-0.84034-3.80416 0.43417 2.00725m-0.90007-4.24279 0.4659 2.23554m-0.967122-4.71726 0.501222 2.48172m-0.501222-2.48115m-0.06807-0.49694 0.06807 0.4975m-0.09942-0.92721 0.03135 0.42971m-0.02853-0.79629-0.0028 0.36658m0.0359-0.67491-0.03308 0.30833m0.09361-0.56303-0.06054 0.2547m0.145682-0.46044-0.08515 0.20574m0.1918-0.3672-0.10665 0.16146m0.23167-0.28352-0.12502 0.12206m0.26554-0.2093-0.14052 0.0872m0.29332-0.14439-0.1528 0.0572m0.31485-0.0891-0.16205 0.0319m0.33042-0.0431-0.16837 0.0113m0.33988-6e-3 -0.17151-5e-3m0.34324 0.0206-0.17173-0.0158m0.34047 0.0383-0.16874-0.0226m0.33164 0.0466-0.1629-0.0243m1.30785 0.3203-1.14495-0.29611m2.25487 0.60714-1.10992-0.31103m2.19055 0.63912-1.08063-0.32809m2.13749 0.67525-1.05686-0.34716m2.0955 0.71552-1.03864-0.36836m2.06474 0.75985-1.0261-0.39149m2.04532 0.8082-1.01922-0.41671m2.037 0.86078-1.01778-0.44407m2.03973 0.91756-1.02195-0.47349m2.05381 0.97833-1.03186-0.50484m1.51331 0.75229-0.481447-0.24745m0.0175-1.31863-1.32119-0.61697-1.31823-0.57923-1.31394-0.54043-1.30813-0.50074-1.30107-0.46011-1.29236-0.41865-1.28227-0.37615-1.27079-0.3329-1.25795-0.2886-1.24347-0.24337-1.22764-0.19732-0.182512-0.0333-0.208394-0.0514-0.232719-0.0689-0.255638-0.086-0.277114-0.10258-0.297037-0.11868-0.315468-0.13436-0.332571-0.14944-0.348009-0.1642-0.362148-0.17844-0.374735-0.19206-0.385826-0.20529-0.395478-0.21818-0.403661-0.23058-0.41038-0.24214-0.415599-0.25358m-0.415573-0.22634 0.415573 0.22634m20.3167 33.5958 1.69471-0.97844m-2.71063 0.27841 1.68692-0.97395m-2.97456-25.5553 1.65323-0.9545m-2.97146 0.37527 1.61868-0.93455m-2.93262 0.39412 1.58431-0.91468m-2.89244 0.41394 1.55772-0.89936m0.74727 0.27494-0.74727-0.27494-1.32142-0.44834-1.31272-0.40691-1.30243-0.36451-1.29075-0.3214-1.27767-0.2772-0.26792-0.0492m9.49345 30.2132 1.66209-0.95961m-2.55778 0.26882 1.63861-0.94607m-2.47415 0.27353 1.61673-0.93342m-2.38602 0.28476 1.59656-0.92176m-2.29345 0.30245 1.57833-0.91127m-0.63184-0.57674 0.27765 0.25583m-1.84263 0.6477 1.56498-0.90353m-0.5422-0.53902 0.5422 0.53902m-0.99232-1.03282 0.45012 0.4938m-0.80191-0.93687 0.35179 0.44307m-0.59902-0.82988 0.24723 0.38681m-0.60486-1.05678 0.35763 0.66997m-0.6996-1.33502 0.34197 0.66505m-0.67194-1.34309 0.32997 0.67804m-0.65165-1.38696 0.32168 0.70892m-0.6387-1.46663 0.31702 0.75771m-0.63308-1.58214 0.31606 0.82443m-0.63486-1.73349 0.3188 0.90906m-0.644-1.92071 0.3252 1.01165m-0.66048-2.14379 0.33528 1.13214m-0.68439-2.40262 0.34911 1.27048m-0.71563-2.69731 0.36652 1.42683m-0.7543-3.02785 0.38778 1.60102m-0.80024-3.39429 0.41246 1.79327m-0.85349-3.79654 0.44103 2.00327m-0.91429-4.23454 0.47326 2.23127m-0.73065-3.48409 0.25739 1.25282m-9.53065-8.75363 1.41636-0.81774m-0.408233-0.23286 0.408233 0.23286m-1.82674 0.58609 1.41851-0.81895m-0.401519-0.23687 0.401519 0.23687m-1.8222 0.58335 1.42068-0.82022m-0.393417-0.23961 0.393417 0.23961m-1.81613 0.5818 1.42271-0.82141m-0.383823-0.24141 0.383823 0.24141m-1.80854 0.58112 1.42471-0.82253m-0.372703-0.24175 0.372703 0.24175m-1.79945 0.58197 1.42674-0.82372m-0.360312-0.24091 0.360312 0.24091m-1.78892 0.58389 1.42861-0.8248m-0.346257-0.23879 0.346257 0.23879m-1.77667 0.58708 1.43042-0.82587m-0.330767-0.23545 0.330767 0.23545m-1.76293 0.5914 1.43216-0.82685m-0.313859-0.23092 0.313859 0.23092m-1.74766 0.5969 1.4338-0.82782m-0.295487-0.22521 0.295487 0.22521m-1.73087 0.6035 1.43538-0.82871m-0.27559-0.21813 0.27559 0.21813m-1.71241 0.6114 1.43682-0.82953m-0.254309-0.20998 0.254309 0.20998m-1.69246 0.62032 1.43815-0.8303m-0.231479-0.20051 0.231479 0.20051m-1.67087 0.63052 1.43939-0.83103m-0.207293-0.18991 0.207293 0.18991m-1.64776 0.64174 1.44046-0.83165m-0.181554-0.17797 0.181554 0.17797m-0.181554-0.17797-1.44142 0.83219v3.75172m0.220162-5.80797 1.22126 1.22406m-2.66912-0.38814 1.44786-0.83592m-0.974598-0.94248 0.974598 0.94248m-1.23427-1.19786 0.259672 0.25538m-1.71679 0.5859 1.45711-0.84128m-1.23811-1.17529 1.23811 1.17529m-2.71498-0.32261 1.47687-0.85268m-1.25081-1.14605 1.25081 1.14605m-2.74769-0.28182 1.49688-0.86423m-1.26218-1.11613 1.26218 1.11613m-2.77918-0.24028 1.517-0.87585m-1.27209-1.08537 1.27209 1.08537m-2.80938-0.19784 1.53729-0.88753m-1.28053-1.05393 1.28053 1.05393m-2.83828-0.15457 1.55775-0.89936m-0.724183-0.5746 0.724183 0.5746m-1.28163-1.02514 0.557445 0.45054m-2.14173 0.46417 1.58428-0.91471m-1.27954-0.99664 1.27954 0.99664m-2.89825-0.0621 1.61871-0.93455m-1.28374-0.96295 1.28374 0.96295m-2.93697-9e-3 1.65323-0.95448m-1.28654-0.92846 1.28654 0.92846m-2.97434 0.046 1.6878-0.97446m-2.97894 0.083 0.82725 0.58519m0.863712-1.56145 1.28798 0.89326m-2.97894 0.083 1.69096-0.97627m-4.61128 0.47095 0.03288 0.0198 1.08576 0.67457 1.05478 0.67612 1.0291 0.68224 0.545056 0.37445m-2.10137-2.78714 1.27412 0.86527m-2.54686-1.69379 1.27274 0.82852m-1.64623-1.06124 0.373493 0.23272m16.0154 16.5496 1.11e-4 -5e-5m-6.05505 13.6105 0.424574-0.24514m-0.770919 0.29142 1.38286-0.79841m-1.82603 0.78452 1.55662-0.8987m0.374396 0.0152-0.374396-0.0152m-2.09048 0.82609 1.56498-0.90353m0.525497 0.0774-0.525497-0.0774m-2.18344 0.77379 1.57833-0.91127m0.336098 0.0777-0.336098-0.0777m0.605113 0.13748-0.269015-0.0598m-2.61134 0.64821 1.59656-0.92177m0.678688 0.19589-0.678688-0.19589m-2.36578 0.68219 1.61668-0.93339m0.749101 0.2512-0.749101-0.2512m-2.45228 0.64112 1.63861-0.94604m0.813676 0.30492-0.813676-0.30492m-2.53424 0.60255 1.66201-0.95956m0.872236 0.35701-0.872236-0.35701m-2.61168 0.56642 1.68692-0.97395m0.924758 0.40753-0.924758-0.40753m-2.1844 0.75393-0.481838-0.23196 1.69472-0.97846m0.971521 0.45649-0.971521-0.45649m-4.96048 0.208 0.411847 0.2435 1.13281 0.63833 1.10242 0.59083 1.06601 0.54156 0.03449 0.0166m-0.481809-1.26035-1.00124-0.51-1.0357-0.55604-1.06401-0.60034-0.164846-0.0975m11.5149 5.06315 1.52564-0.88081m-1.14489 0.54102 1.51971-0.8774m-0.37482 0.33638 0.37482-0.33638m-1.14576 0.43911 1.51381-0.87399m-0.368046 0.43488 0.368046-0.43488m-1.14616 0.34522 1.50803-0.87066m-0.361865 0.52544 0.361865-0.52544m-1.14622 0.25914 1.50232-0.86738m-0.356108 0.60824 0.356108-0.60824m-1.14582 0.18107 1.49677-0.86414m-0.350943 0.68307 0.350943-0.68307m-1.145 0.11094 1.49123-0.86094m-0.346232 0.75 0.346232-0.75m-1.14374 0.0487 1.48576-0.85781m-0.342024 0.80913 0.342024-0.80913m-1.1421-6e-3 1.48037-0.85468m-0.338272 0.86041 0.338272-0.86041m-1.1399-0.052 1.47501-0.85161m-0.335111 0.90362 0.335111-0.90362m-1.1373-0.0906 0.596421-0.34431m0.54088 0.4349 0.210283-0.59413m-1.01211-0.46621 1.46445-0.8455m-0.08814 0.25803 0.08814-0.25803m-0.9974 0.78299 0.909262-0.52496m-1.25563 1.2426 0.346371-0.71764m-0.133295-0.92693 1.4592-0.84246m-0.328506 0.9864 0.328506-0.9864 0.32738-0.99811m0.06161-0.18917 0.267856-0.81455m-0.329464 1.00372 0.06161-0.18917m-0.85203-0.97765 1.44983-0.83707m-0.329946 1.00017 0.329946-1.00017m-1.11782-0.15229 0.855163-0.49371m0.262662 0.646 0.194424-0.58186m-1.18587 0.19575 0.389017-0.22459m19.9577 28.2732 1.55662-0.89871m-1.99977 0.4009 1.54966-0.8947m-1.896 0.44848 1.54421-0.89154m-1.7876 0.50252 1.54037-0.88934m-1.89247 0.21618 1.53484-0.88615m-1.87156 0.21802 1.52959-0.8831m-1.85445 0.20213 1.52448-0.88014m-1.84116 0.16837 1.51948-0.87728m-1.83159 0.11672 1.51457-0.87443m-1.82575 0.0472 1.50969-0.87161m-1.82358-0.0403 1.50478-0.86877m-1.82496-0.14577 1.49976-0.86588m-1.82988-0.26921 1.4946-0.86293m-1.83829-0.41071 1.48918-0.85977m-1.85005-0.57034 1.48352-0.85649m-1.8652-0.74803 1.47743-0.85299m-1.88361-0.94392 1.47114-0.84934m-1.90531-1.15788 1.46429-0.84539m-1.93018-1.39015 1.45692-0.84113m-0.50642-2.47876 0.24903 1.22595m-1.70076-0.38781 1.45173-0.83814m-1.45173 0.83874 1.45173-0.83814m-0.0685-0.49728 0.0684 0.49674m-1.51971 0.34115 1.45127-0.83789m-0.0315-0.4296 0.0315 0.4296m-1.48263 0.40821 1.4511-0.83781m3e-3 -0.36664-3e-3 0.36664m-1.44839 0.47123 1.45122-0.83787m0.0331-0.30838-0.0331 0.30838m-1.41814 0.52954 1.45127-0.83792m0.0135-0.057-0.0135 0.057m-1.39085 0.58321 1.15694-0.66796m-1.07179 0.46222 0.81076-0.46809m-0.70411 0.30663 0.48387-0.27934m-0.35885 0.15728 0.17081-0.0986m5.13071-0.1565 1.53738-0.88759m-2.82973 0.46894 1.517-0.87585m-2.79928 0.49971 1.49685-0.86422m-2.76764 0.53131 1.4769-0.85271m-2.73485 0.56411 1.45717-0.84131m-2.70064 0.59795 1.44791-0.83594m0.98482 0.18875-0.98482-0.18875-1.23413-0.19358m-1.62393 0.79889 1.44046-0.83166m0.183472 0.0328-0.183472-0.0328m-1.64885 0.78026 1.43933-0.83097m0.209521 0.0507-0.209521-0.0507m-1.67205 0.76211 1.43812-0.8303m0.233934 0.0682-0.233934-0.0682m-1.69376 0.74431 1.43682-0.82957m0.256934 0.0853-0.256934-0.0853m-1.71394 0.72698 1.43541-0.82875m0.278527 0.10177-0.278527-0.10177m-1.73245 0.71008 1.43386-0.82785m0.29859 0.11777-0.29859-0.11777m-1.74933 0.69345 1.43217-0.82682m0.317162 0.13337-0.317162-0.13337m-1.76474 0.67741 1.4305-0.82592m0.334235 0.14851-0.334235-0.14851m-1.77851 0.66173 1.42858-0.8248m0.349927 0.16307-0.349927-0.16307m-1.79073 0.64635 1.42669-0.8237m0.36404 0.17735-0.36404-0.17735m-1.80142 0.63164 1.4248-0.82259m0.376624 0.19095-0.376624-0.19095m-1.81063 0.61731 1.42271-0.82141m0.387916 0.2041-0.387916-0.2041m-1.81819 0.60322 1.42062-0.82019m0.397566 0.21697-0.397566-0.21697m-1.82428 0.58961 1.41853-0.81898m0.405752 0.22937-0.405752-0.22937m-1.82891 0.57684 1.41639-0.81777m0.412522 0.24093-0.412522-0.24093m-1.83199 0.56419 1.41427-0.81652m0.417719 0.25233-0.417719-0.25233m-0.413483-0.22756 0.413483 0.22756m9.53886 13.8204 0.74461 0.0341-1.30505 1.30319m0.56044-1.33731-0.70592 0.70493m1.63353 0.22352-1.28016 1.27833m1.09716-2.17266 0.183 0.89433m-32.1034-31.998 1.28798 0.85725m-1.51314-1.00081 0.225157 0.14356m-1.67711 0.96825 1.67711-0.96825m-4.40075 0.66424 1.07744 0.66396m2.04812-2.15533 1.05004 0.68357m-2.72469 0.28329 1.67465-0.96686m-2.93489 0.16989 0.886743 0.56425m0.778171-1.52547 1.26997 0.79133m-2.93489 0.16989 1.66491-0.96122m-6.41635-0.411 0.04761 0.0271m0 3e-5 1.09875 0.63463 0.927354 0.54345 0.71422 0.42364 0.459147 0.2752 0.162362 0.0982 1.15133 0.69156m-1.06141-2.08213 1.25208 0.76065m-2.48697-1.49315 1.23489 0.7325m-2.46975-1.46498 1.23486 0.73248m-2.26447-1.34321 1.0296 0.61073m9.56906 30.1284-1.01216-0.50371-0.850138-0.44633m-0.833657 1.41847 1.6838-0.97214m-4.6852 0.26639 0.736883 0.44532m1.22882-0.29563 1.67474-0.96689m0.194621 0.10448-0.194621-0.10448m-2.73874 0.36658 1.67462-0.96684m1.06412 0.60026-1.06412-0.60026m-1.83947 0.8693-0.91186-0.55135 1.66469-0.96111m1.08664 0.64316-1.08664-0.64316m-6.39098-1.15366 0.642282 0.44023 1.0138 0.67759 1.03169 0.67731 1.05164 0.68331 1.16188 0.73584m-0.175006-1.09951-1.09135-0.6911-0.983544-0.63893-0.957101-0.62834-0.933534-0.62416-0.760759-0.52205m23.6698-0.4456-1.07541 0.22795m0.706488 0.64394-1.78348 0.37796m1.58931 0.30739-1.93568 0.41024m-16.0205-26.6972 1.26588 0.75269m-2.51437-1.47735 1.24849 0.72466m-2.49696-1.44929 1.24847 0.72463m-2.29407-1.33155 1.0456 0.60692m0.845848 2.40255 1.65111-0.95326m-6.31822-0.33601 1.16775 0.6777m-0.20303-1.58722 0.20303 0.12308m1.40724-1.05277 0.20066 0.11901m-7.18092-0.69275 0.40561 0.20668 1.35108 0.72175 1.34699 0.74501 1.30158 0.73951m-0.256541-1.64987 1.22126 0.74035m-2.44252-1.48071 1.22126 0.74036m-2.44255-1.48071 1.22129 0.74035m-2.44255-1.4807 1.22126 0.74035m-1.70618-1.03429 0.484914 0.29394m11.4791 31.5257-1.1034-0.68416-0.994438-0.63263-0.967599-0.62227-0.943751-0.61826-0.773882-0.52037m2.02703 3.3477 1.65264-0.95417m-5.63928-0.71552 0.351705 0.24602m2.65139 0.78474 1.64174-0.94787m-2.59884 0.31953 1.63124-0.9418m-2.56478 0.31764 1.62103-0.9359m-2.38179 0.41385-0.150622-0.10553 1.61078-0.93m0.147743 0.10131-0.147743-0.10131m-7.03318-2.39982 0.449947 0.41331 0.939264 0.81588 0.944824 0.77825 0.952189 0.74685 0.961757 0.72184 0.973328 0.70301m0.201083-0.84932-0.885839-0.64106-0.871615-0.65631-0.86058-0.67818-0.852339-0.70649-0.847175-0.74134-0.845199-0.78274-0.259617-0.25485m5.74537-23.5165 1.23486 0.73251m-2.46976-1.46499 1.23489 0.73248m-2.46976-1.46499 1.23486 0.73251m-3.70462-2.1975 2.46976 1.46499m-3.14246-1.86399 0.672705 0.399m-1.70397 2.6201 0.898087 0.46865m1.70618-0.71763 1.56947-0.90613m-4.00377-0.57932 1.53402-0.88567m-1.53402 0.88567 0.728133 0.45116m-5.50723-0.18818 0.09742-0.11066 0.501452-0.0217 0.742837 0.17642 0.943272 0.34558 1.10273 0.48556 1.22143 0.59639m-1.0377-2.48265 1.20766 0.74823m-2.41529-1.49646 1.20763 0.74823m-2.41526-1.49646 1.20763 0.74823m-2.36378-1.46454 1.15615 0.71631m11.3842 31.3365-0.895689-0.63537-0.881323-0.65072-0.870092-0.67267-0.861878-0.70099-0.856601-0.73586-0.854654-0.77733-0.855472-0.8251-0.824314-0.84357m4.4034 6.13055 1.60093-0.92431m-6.618-2.21392 0.480511 0.44947m3.66494 2.03245 1.59123-0.91872m-2.45181 0.24054 1.58171-0.91321m-2.43405 0.20672 1.57218-0.90771m-2.41935 0.16637 1.56275-0.90223m-2.40795 0.11949 1.55329-0.89682m-1.81291 0.64197-0.579938-0.57949 1.53738-0.88758m-6.46464-3.56004 0.379137 0.50405 0.938926 1.17867 0.932236 1.10349 0.927523 1.03468 0.924702 0.97206 0.924137 0.91584m-0.09943-1.26117-0.840571-0.89049-0.847401-0.9516-0.857306-1.01907-0.870261-1.09313-0.88598-1.17377-0.287782-0.54847-0.241723-0.77763-0.09627-0.47374m5.0844-19.6752 0.555978 0.33708m-2.9e-5 24.5348-0.0348-0.0363-0.857024-0.94601-0.866987-1.01349-0.880053-1.08749-0.896028-1.16794-0.290999-0.54664-0.244376-0.77608-0.200802-0.97561-0.160217-1.14509-0.122626-1.28437-0.08817-1.39352-0.05659-1.47284-0.02822-1.52177-0.0028-1.54085m2.9e-5 0 0.01976-1.52967m-2.9e-5 0 0.03903-1.48844 0.05537-1.41726 0.06872-1.31598 0.07911-1.18443 0.08616-1.02291 0.01016-0.0938m2.59407-2.65182 1.22126 0.74036m-2.44252-1.48071 1.22126 0.74035m-2.44255-1.48071 1.22129 0.74036m-2.44255-1.48071 1.22126 0.74035m-2.44255-1.48068 1.22129 0.74033m-1.52524-0.92456 0.303953 0.18423m0.901421 5.72434 0.120509-0.13781m-0.120509 0.13781 0.447717-0.25849m-0.378121-3.13552 0.05097 0.0322m-2.9e-5 21.0144-0.101063-0.50388-0.156662-1.14715-0.119944-1.28592-0.08608-1.39471-0.05546-1.47348-0.02738-1.5222-0.0028-1.54087m1.13e-4 0 0.01919-1.52945 0.03813-1.4879 0.05419-1.41659 0.06717-1.31504 0.07724-1.18339 0.08436-1.02189 0.08848-0.83016m-1.12438-4.15011 1.194 0.7561m-2.38794-1.51223 1.19394 0.75613m-2.38794-1.51223 1.194 0.7561m-2.38802-1.51218 1.19403 0.75608m-1.19403-0.75608-5.6e-5 6.45031 0.01467 0.0102m2.9e-5 -3e-5 0.04256 0.0288 0.06852 0.0487 0.09265 0.0662 0.11478 0.0838 0.134817 0.1001 0.153049 0.11591 0.169305 0.13064 0.183614 0.14481 0.195947 0.15821 0.206305 0.17072 0.214714 0.18248 0.221262 0.19364 0.225693 0.20373 0.228346 0.21331 0.228911 0.22185 0.201619 0.36582 0.152683 0.62244 0.111788 0.84444 0.07868 1.03191 0.05337 1.18463 0.0361 1.30291 0.02653 1.38642 0.02484 1.43544m2.8e-5 0 0.03104 1.4498 0.04518 1.42965 0.0672 1.37479 0.09703 1.28527 0.134676 1.16123 0.180199 1.00273 0.233708 0.80939 0.294894 0.58157 0.562215 0.75958m4.08666 3.55712 1.51884-0.87691m-2.36626-0.0747 1.50924-0.87133m-2.36652-0.14775 1.4995-0.86574m-2.36976-0.22739 1.48974-0.8601m-2.37572-0.31366 1.47969-0.85429m-1.7675 0.30582 1.4765-0.85245m-1.7182 0.0748 1.47382-0.8509m-1.67115-0.12668 1.47032-0.8489m-1.62698-0.29825 1.46676-0.84684m-1.58671-0.43908 1.46411-0.84528m-1.55019-0.54943 1.46202-0.8441m-1.51751-0.62939 1.46092-0.84344m-1.48838-0.67875 1.46019-0.84302m-1.4629-0.69786 1.4601-0.84299m-1.44086-0.68645 1.46056-0.84323m-1.4224-0.64468 1.46143-0.84376m-1.40724-0.57282 1.46262-0.84444m-1.39545-0.47061 1.46417-0.84536m-1.38692-0.33802 1.466-0.84642m-1.38165-0.17548 1.46784-0.84743m-2.84297-6.05135 0.258262 0.1601m-0.954504-0.53467 0.696242 0.37457m-1.99229-1.07174 1.29605 0.69717m-2.54649 0.0248 1.25044-0.72195m-1.94454 6.51157 0.694069 0.40076m3.7491-9.13236-4.44314 2.5262 0.707136 0.40823m5.15019-2.11793-3.17065 1.80275m4.90993 2.89464 4.26268-2.77586 5.58636-3.62144 5.74111-3.69754 5.82992-3.72248 5.85292-3.69626 5.80997-3.61882 5.70131-3.49026 5.52665-3.31055 5.28602-3.07972 4.97981-2.79773 4.60742-2.46449 4.16941-2.0802 3.66531-1.6447 3.09553-1.158 2.45984-0.62022 1.67767-0.20097 1.49296-0.047 1.32599 0.1007 1.17712 0.24183 1.04592 0.3766 0.93274 0.50497 0.83758 0.62691 0.76025 0.74257 0.70079 0.8516 0.65927 0.95453 0.63565 1.05076 0.63012 1.14078 0.64228 1.22428 0.67242 1.30145 0.72043 1.37223 0.78647 1.43663 0.15367 0.27675 0.15333 0.27856 0.15469 0.27592 0.15762 0.26844 0.16227 0.25643 0.16846 0.23979 0.17631 0.2184 0.18587 0.19234 0.19693 0.1617 0.20978 0.12634 0.22414 0.0864 0.24014 0.0417 0.25787-7e-3m0-2e-5 0.27714-0.0614 0.29811-0.12004 0.32061-0.18326 0.4592-0.29687 0.43118-0.27758 0.40149-0.26159 0.37008-0.24922 0.3368-0.2402 0.302-0.23474 0.26541-0.23268 0.22713-0.23402 0.187-0.2389 0.14531-0.2473 0.10174-0.25897 0.0566-0.27413 0.01-0.29301m9e-5 0-0.039-0.31498-0.0894-0.34064-0.14143-0.36973-1.06874-2.32513-1.05907-2.05095-1.05774-1.7927-1.06451-1.55036-1.07956-1.32387-1.10281-1.11371-1.13431-0.91908-1.17396-0.74076-1.22191-0.57822-1.27807-0.43169-1.34242-0.30114-1.41498-0.18661-1.49583-0.0879-1.58479-5e-3m0 1e-5 -1.68202 0.0614-1.78748 0.11217-0.77953 0.0744-0.73902 0.10637-0.70262 0.13603-0.67067 0.16319-0.64299 0.18788-0.61965 0.21017-0.60045 0.22994-0.5857 0.24739-0.57523 0.26225-0.56893 0.27478-0.56704 0.28466-0.56941 0.29237-0.57607 0.29739-0.587 0.3001-0.60234 0.3003-0.6218 0.29803-4.2598 2.50742-4.263 2.49727-4.26722 2.48875-4.27302 2.48169-4.28001 2.47661-4.2884 2.4729-4.29788 2.47087-4.30886 2.47041-4.32108 2.47168-4.33462 2.47464-4.34933 2.47911-4.36558 2.48525-4.383 2.49299-4.40174 2.50244-4.4218 2.51344m-5.85732 1.7097-2.8e-5 6.20539m86.7648-44.57 0.4819 0.36068 0.76019 0.74248 0.70084 0.85168 0.65925 0.95445 0.63567 1.05084 0.63012 1.14078 0.64228 1.22428 0.67242 1.30146 0.72043 1.37222 0.7865 1.43663 0.15359 0.27666 0.15338 0.27865 0.15469 0.27592 0.15765 0.26845 0.16225 0.25643 0.16846 0.23979 0.17627 0.21831 0.18587 0.19234 0.19697 0.16178 0.20977 0.12634m-4.09921-16.4253-1.22197-0.5783-1.27801-0.43161-1.34248-0.30122-1.41492-0.18653-1.49583-0.0879-1.58479-5e-3m0 1e-5 -1.68202 0.0615-1.78748 0.11218-0.77959 0.0743-0.73897 0.10645-0.70262 0.13603-0.6707 0.16311-0.64296 0.18796-0.61961 0.21017-0.60049 0.22994-0.58567 0.24739-0.57525 0.26225-0.56899 0.27469-0.56698 0.28475-0.56941 0.29237-0.57608 0.29738-0.58705 0.30002-0.60226 0.30025-0.62188 0.29808-4.25972 2.50751-4.26302 2.49727-4.26723 2.48874-4.27301 2.4817-4.28001 2.47661-4.28839 2.4729-4.29791 2.47078-4.30883 2.4705-4.32108 2.47168-4.3346 2.47464-4.34936 2.47911-4.36558 2.48525-4.383 2.493-4.40174 2.50241-4.42177 2.51345m90.7301-23.1083 1.41422 0.81648m-5.51307-17.2417 1.41421 0.81648m-37.1651 83.5672c0.19507-0.58965 0.45258-0.83273 0.72593-0.81269l0.43801 0.02m-0.94742 1.8288c0.18768-1.33319 0.55087-1.85787 0.94742-1.8288 0.60839 0.0446 1.29529 1.39249 1.54748 3.12372 0.40014 2.74701-0.21739 4.94479-1.19817 4.22512m-4.41283-15.4611-1.44142 0.83222v3.75172" style="color-rendering:auto;color:#000000;fill:none;image-rendering:auto;isolation:auto;mix-blend-mode:normal;shape-rendering:auto;solid-color:#000000;stroke-width:.330729;stroke:#d84365"/>
  </g>
</svg>
