<?xml version="1.0" encoding="UTF-8"?>
<svg width="3e3" height="3e3" version="1.1" viewBox="0 0 793.75 793.75" xmlns="http://www.w3.org/2000/svg">
  <g transform="translate(0 496.75)">
    <rect x="-5.68434e-14" y="-496.75" width="793.75" height="793.75" style="fill:#384151"/>
    <path d="m381.395-91.6373-36.2991-20.9665m12.8366-27.5274 9.12835 5.27728m123.231-19.6828-36.2991-20.9665m12.908-27.5274 9.05679 5.27727m-118.382-79.3017v136.853m-30.3086 195.972v-335.392m30.3086 174.221v163.809m108.897-398.291v136.781m-30.2374 195.972v-335.392m30.2374 174.293v163.738m92.9941-2.70994-272.279 157.248m-52.8442-60.1895 92.9229-53.6285m30.3086-17.472 78.6599-45.4273m30.2374-17.472 40.1501-23.1772m-161.884-63.4699v-0.64182m-1.85413-0.42791 1.85413 1.06973m-4.56416 5.77647 2.71003-6.8462m0 16.7589-2.71003-9.91271m4.56416 10.9824-1.85413-1.06972m1.85413 1.71157v-0.64185m36.2991 21.6083-36.2991-20.9664m36.2991 20.9664v-9.05692m0 0-2.7812-1.56892m0 0-0.42795 2.85257m0 0-16.1883-12.3374m0 0-1.42638-1.21235-1.35502-1.42629-1.28366-1.64025-1.14095-1.78285-0.92707-1.85416-0.78453-1.9255-0.49912-1.9255-0.35659-1.85416m0 0-9.12836-5.27729m5.91921 19.041-2.7814-1.56891m0 0v-13.3358m0 0 2.7814 1.64025m0 0v13.2645m42.8599 3.70836v9.05694m0 0h-0.0708v0.14276h-0.0707v0.07138m0 0-11.1252 6.34699m0 0v0.07138h-0.0707v-0.14276m0-8.98563-1.14116 0.64184m1.2123 9.77006-0.42774 0.14276h-0.21408l-0.2139-0.07138-0.14351-0.142723-0.14353-0.142713-0.0707-0.285264v-0.213951m12.3375-5.70516-11.1252 6.41831m12.4088-8.62908-0.0708 0.3566-0.0708 0.285262-0.0708 0.356573-0.21387 0.285253-0.14354 0.28525-0.21387 0.285264-0.28523 0.213951-0.2139 0.142525m1.28368-11.1964v8.98563m0-8.98563-1.14114 0.64181m-11.3389 15.5466v-8.98563m-2.7814-1.56893-1.14095 0.64183m1.14095-0.64183 2.7814 1.56893m-19.3976-11.0538-1.14093 0.64183m1.14093-0.64183 15.2612 11.6243m-13.4784-19.8967-1.49753-0.85578m0 0v2.78125m0 0-2.70985-1.64022m0 0v-8.91431m2.70985-1.56891v1.49759m0 0 1.49753 0.85577m0 0v7.84461m-7.41652 0.21393-0.64183-0.42788m0.64183 0.42788v0.64182m36.3703 20.9665-36.3703-20.9665m36.3703 11.9095-2.7812-1.5689m0 0-0.42796 2.85259m0 0-16.1883-12.3374m0 0-1.4264-1.21235-1.42616-1.42629-1.2125-1.64024-1.14095-1.78288-0.92706-1.85416-0.78456-1.9255-0.57047-1.92548-0.28523-1.85418m-21.2518 20.7525v0l-0.14352-0.14271-0.14352-0.14274-0.0707-0.28524v-0.21394m48.6366 13.9777-36.2991-20.9665m0 0h-0.0708m-6.34694 3.70834-1.64026 0.92707m6.06173-12.694-0.42796 0.35657-0.35659 0.42787-0.28524 0.57051-0.14152 0.57054v0.35658m1.28368-0.85579h-0.0708v0.0713h-0.0707v0.1426m11.1964-6.63225-11.0536 6.41831m11.1964-6.34699v-0.0713h-0.1415m9.05699 13.0506-1.14094 0.64184m-6.6324-14.2629-0.14351-0.49919-0.21409-0.28528-0.35638-0.1427h-0.3566l-0.28525 0.1427m0 0-11.0538 6.34701m20.182 8.05854-1.4262-1.21236-1.42636-1.49759-1.21232-1.64024-1.14113-1.71156-0.92707-1.92548-0.78434-1.85418-0.57068-1.9255-0.28523-1.85417m-12.48 7.20279 0.3566 1.85417 0.49931 1.92549 0.78435 1.85417 0.92707 1.92548 1.14114 1.71156 1.28366 1.64022 1.35481 1.49761 1.42638 1.21233m29.0962 2.28209-1.14093 0.64182m3.92234 0.92709-2.78141-1.56891m-1.35482 2.13942-15.2614-11.6242m-30.5226-11.0538v-0.28524l0.0707-0.35659 0.14355-0.28524 0.14353-0.35659 0.14353-0.28526 0.28522-0.28524 0.21387-0.21397 0.21389-0.14272m9.12834 5.20597-9.12834-5.20597m0 0 11.1252-6.41829m9.05698 5.27724-9.05698-5.27724m0.0707 19.4688v0.1426h-0.0707v0.0714m-8.05856 5.77648-1.14115 0.64182m1.14115-12.6227v11.9808m8.05856-25.4593 0.21388-0.0713 0.21385-0.0714h0.28545l0.1415 0.0714m-8.91426 25.5306 1.64026 0.92709m10.8398-8.12986-1.14094 0.64184m1.14094-0.64184v-8.91429m1.56891 8.41509 1.14114-0.64182m0.35639 0.21394-0.35639-0.21394m-1.14114 2.0681-1.56891-0.92708m92.1381-71.8849v-0.64185m-1.85412-0.42788 1.85412 1.06973m-4.56416 5.77647 2.71004-6.8462m0 16.7589-2.71004-9.9127m4.56416 10.9824-1.85412-1.06973m1.85412 1.71157v-0.64184m36.2991 21.6083-36.2991-20.9664m36.2991 20.9664v-9.05694m0 0-2.7101-1.56891m0 0-0.42776 2.85256m0 0-16.2598-12.2661m0 0-1.42615-1.28366-1.35505-1.42628-1.28367-1.64023-1.14114-1.78287-0.92704-1.85418-0.71302-1.92549-0.57066-1.9255-0.35658-1.85416m0 0-9.12815-5.2773m5.91898 19.1123-2.78119-1.64023m0 0v-13.2645m0 0 2.78119 1.56889m0 0v13.3358m42.8602 3.63701v9.05695m0 0v0.0713l-0.0707 0.0713-0.0708 0.0713m0 0-11.0536 6.4183m0 0h-0.1415v-0.0713m0-9.05697-1.14094 0.64185m1.28368 9.77007-0.28528 0.14273h-0.42795l-0.21386-0.0714-0.14353-0.0713-0.14353-0.21394-0.0708-0.21394v-0.28523m12.3373-5.7052-11.0536 6.41831m12.3373-8.55774v0.28526l-0.0707 0.28525-0.14349 0.35658-0.14354 0.28524-0.2139 0.28527-0.21384 0.28524-0.21412 0.21398-0.28522 0.1425m1.28369-11.1964v9.05695m0-9.05695-1.14094 0.64184m-11.3391 15.6179v-9.05694m-2.70988-1.56892-1.14114 0.64183m1.14114-0.64183 2.70988 1.56892m-19.3974-11.0538-1.14115 0.71315m1.14115-0.71315 15.3326 11.6243m-13.5498-19.8967-1.4262-0.78447m0 0v2.70996m0 0-2.78141-1.64024m0 0v-8.84298m2.78141-1.64023v1.49758m0 0 1.4262 0.8558m0 0v7.84458m-7.3454 0.21392-0.71318-0.35656m0.71318 0.35656v0.64185m36.2991 20.9665-36.2991-20.9665m36.2991 11.9095-2.71004-1.5689m0 0-0.42775 2.92388m0 0-16.2599-12.3374m0 0-1.42614-1.28366-1.35505-1.42627-1.28363-1.64024-1.14098-1.78285-0.92724-1.85421-0.78436-1.92548-0.49933-1.9255-0.35637-1.85416m-21.2518 20.7525v0l-0.14353-0.0713-0.14354-0.21396-0.0707-0.21395v-0.28524m48.6364 13.9776-36.2991-20.9664m0 0h-0.0708m-6.34717 3.70835-1.64005 0.92708m6.06174-12.6227-0.42796 0.28525-0.35659 0.49921-0.28523 0.49922-0.14353 0.57051v0.35657m1.28367-0.85578h-0.0708v0.1426l-0.0708 0.0713m11.1963-6.63227-11.0538 6.41831m11.1966-6.34699v-0.0713h-0.1416m9.05699 13.0506-1.14114 0.71312m-6.63217-14.3342-0.0708-0.42788-0.28527-0.35656-0.28521-0.14271h-0.42796l-0.28523 0.14271m0 0-11.0536 6.41831m20.182 7.98723-1.42636-1.21238-1.35501-1.42628-1.28367-1.64023-1.14093-1.78286-0.92708-1.85418-0.78456-1.9255-0.49907-1.92547-0.35664-1.8542m-12.48 7.2028 0.35659 1.85415 0.57051 1.92549 0.71318 1.92549 0.99845 1.85416 1.06956 1.78289 1.28368 1.64021 1.355 1.4263 1.42636 1.21235m29.1676 2.28207-1.14114 0.64182m3.85098 0.9271-2.70984-1.56892m-1.35504 2.13942-15.3326-11.6242m-30.5226-11.0538v-0.28527l0.0707-0.35659 0.14348-0.28525 0.14353-0.28524 0.2139-0.35658 0.21386-0.21393 0.21411-0.21395 0.28522-0.21396m9.057 5.27729-9.057-5.27729m0 0 11.0536-6.34698m9.05699 5.20596-9.05699-5.20596m0.14352 19.3975v0.0713h-0.0708v0.1426h-0.0708m-8.05838 5.77648-1.14109 0.64183m1.14109-12.6227v11.9808m8.05838-25.388 0.21406-0.14273 0.28528-0.0713h0.21384l0.21406 0.0713m-8.98562 25.5306 1.64006 0.92707m10.84-8.12984-1.1412 0.64182m1.1412-0.64182v-8.91432m1.64021 8.48643 1.14093-0.71313m0.28527 0.21394-0.28527-0.21394m-1.14093 2.0681-1.64021-0.92708m-128.937-102.051 15.618 8.98562m-18.1853-8.98562 0.28543-0.1427 0.28523-0.0713 0.35659-0.0713 0.35641-0.0713 0.3566 0.0713 0.35658 0.0713 0.28523 0.0713 0.28524 0.1427m-13.621 6.34698 11.0536-6.34698m-11.0536 7.8446-0.21388-0.14271-0.21408-0.21395-0.0707-0.21394-0.0708-0.1427 0.0708-0.21396 0.0707-0.21396 0.21408-0.14271 0.21388-0.21395m15.6178 10.4832-15.6178-8.98563m18.1138 8.98563-0.21388 0.14252-0.35659 0.0713-0.35661 0.0713-0.28524 0.0713-0.71318-0.1426-0.28522-0.0713-0.28525-0.14252m13.6212-6.34699-11.1252 6.34699m11.1252-7.84461 0.21388 0.14273 0.14353 0.21392 0.14354 0.21395v0.35665l-0.14354 0.21397-0.14353 0.1427-0.21388 0.21396m-12.48 5.70515-15.618-8.98562m0 0v-0.0714h-0.0707v-0.0714h0.0707m0 0 11.0538-6.4183m0 0v0h0.2829m0 0 15.6178 8.98563m0 0v0.1426m0 0-11.125 6.41829m0 0v0h-0.2122m-1.14115 0.64185v138.35m1.28367 0.35657-0.35659-0.0713h-0.35661l-0.28522-0.14271-0.28525-0.14273m13.6212 190.695-11.1252 6.4183m10.7686-186.487 0.35659-0.21397m-0.57047-6.70354v6.41831m-7.4881-4.99202 0.0708-0.14273m1.56889 3.85099h-0.21407l-0.71299-0.0713-0.57067-0.35656-0.14354-0.21394m-21.1804-155.537v335.392m0.49911 0.356575-0.49911-0.356575m0.49911 0.499207v-0.142715m14.5483 8.3438v0.142716m0.57046 0.213934-0.57046-0.35657m0.57152-179.926v180.283m0-180.283-0.57048-0.35657m0 0-2.71002-9.91272m0 0 2.71002-6.84619m0 0 0.57048 0.28526m-2.06858 189.055v3.20915m0 0-11.5529-6.63225m0 0v-3.20914m0 0 11.5529 6.63224m-13.5498-0.998408-0.21388-0.142515-0.21409-0.213955-0.0707-0.142721-0.0707-0.213938m4.70658-1.8542 1.64027-0.927078m15.404-176.361 0.71319-0.0713 0.85572-0.42789h0.0707m-4.70689 189.411-0.21389 0.07131-0.35659 0.142516-0.35659 0.07131h-0.64182l-0.3566-0.07131-0.28524-0.142516-0.28523-0.07131m13.6925-186.773-0.0707 0.0713m0.49912 179.57v0.142716l-0.14355 0.213944-0.14352 0.213954-0.21388 0.142716m-26.1012-5.77647-1.14094 0.713151m1.14094-0.713151 10.412 5.99041m-10.412-7.84458v1.85417m123.945-386.097-0.28522 0.0713-0.28522 0.14272-0.3566 0.0713h-0.71323l-0.35659-0.0713-0.28521-0.14272-0.28523-0.0713m0 0v138.35m1.28367 0.28526h-0.35664l-0.35659-0.0713-0.28521-0.14272-0.28523-0.0713m-1.99685-155.252 15.6178 8.98563m-18.1851-8.98563 0.28524-0.14273 0.3566-0.0713 0.28524-0.0714h0.71318l0.3566 0.0714 0.28523 0.0713 0.28524 0.14273m-13.621 6.41829 11.0536-6.41829m-11.0536 7.84459-0.21408-0.1427-0.14351-0.21395-0.14355-0.1427v-0.42788l0.14355-0.21398 0.14351-0.1425 0.21408-0.14272m15.6178 10.4832-15.6178-9.05696m29.2388 2.63864-11.0536 6.41832m11.0536-7.91593 0.21411 0.21395 0.14148 0.14252 0.14354 0.21394v0.35667l-0.14354 0.21397-0.14148 0.21393-0.21411 0.14273m-12.48 5.70514-15.6178-8.98563m0 0v-0.0713h-0.0708l0.0708-0.0714m0 0 11.0538-6.41829m0 0h0.283m0 0 15.6178 9.05695m0 0v0h0.0707v0.0713h-0.0707v0.0715m0 0-11.0538 6.347m0 0h-0.0708v0.0713h-0.1415l-0.0707-0.0713m-16.7588-8.34381v335.392m0.57047 0.356571-0.57047-0.356571m0.57047 0.499213v-0.142721m14.4769 8.3438v0.213956m0.57048 0.142721-0.57048-0.356571m0.57044-179.927v180.283m0-180.283-0.57049-0.35656m0 0-2.71003-9.91273m0 0 2.71003-6.84619m0 0 0.57049 0.35657m-2.06823 188.983v3.20915m0 0-11.4816-6.63224m0 0v-3.20915m0 0 11.4816 6.63224m15.6892 1.64024-11.0536 6.4183m10.6972-186.487 0.35638-0.21394m-0.57043-6.63223v6.4183m-7.48789-5.06333 0.0707-0.14272m1.56893 3.85099-0.14151 0.0713-0.71319-0.0713-0.64182-0.42788-0.14353-0.21394m-21.1804 179.855-0.21409-0.14272-0.14352-0.142716-0.14353-0.213939v-0.213939m4.70672-1.78287 1.56908-0.927084m15.4039-176.432 0.71298-0.0713 0.85592-0.42787h0.0708m-4.63532 189.411-0.28527 0.142716-0.28522 0.071358-0.35659 0.071359h-0.7132l-0.35658-0.071359-0.28527-0.071358-0.28523-0.142716m13.7636-186.773-0.14348 0.0713m0.49928 179.57v0.213954l-0.14355 0.142521-0.14147 0.213954-0.21412 0.142721m-26.0296-5.70515-1.14115 0.641828m1.14113-0.641836 10.3404 5.99042m-10.3404-7.91591v1.9255m-203.674 99.555 48.9932 28.3118m-51.7744-26.7429 0.0708-0.570542 0.14152-0.499208 0.28523-0.427884 0.35658-0.285241 0.3566-0.142724h0.49929l0.49913 0.142724 0.57051 0.213958m-2.78123 26.7429v-25.174m2.78123 29.8808-0.57051-0.35657-0.49913-0.49922-0.49929-0.57052-0.3566-0.57049-0.35658-0.71316-0.28523-0.64183-0.14152-0.71314-0.0708-0.64185m51.7744 33.0186-48.9932-28.3118m51.703 26.7429-0.0708 0.57052-0.14349 0.49922-0.21409 0.42789-0.3564 0.28525-0.42796 0.14253h-0.49929l-0.49913-0.14253-0.49909-0.21395m2.7098-26.7429v25.174m-2.7098-29.8808 0.49909 0.35656 0.49913 0.49923 0.49929 0.57049 0.42796 0.57052 0.3564 0.71316 0.21409 0.71314 0.14349 0.64183 0.0708 0.64182m-2.70985 24.1043-48.9932-28.3119m0 0-0.14149-0.0713-0.2121-0.2139-0.0708-0.14271v-0.14251l-0.0708-0.0714v-0.1427m0 0v-25.1027m0 0v-0.142725l0.0708-0.0713v-0.07139l0.0708-0.0713h0.2121l0.14149 0.0713m0 0 48.9932 28.3119m0 0 0.0707 0.0714 0.0707 0.0713 0.1414 0.1428 0.0707 0.14272 0.0707 0.14251v0.2141m0 0v25.1027m0 0v0.21401l-0.1414 0.1426h-0.2121l-0.0707-0.0713m0-28.8111 272.279-157.177m-269.569 161.884 272.279-157.177m-2.71002-4.70676 0.57049 0.35657 0.49928 0.427895 0.42775 0.570512 0.42795 0.641826 0.3566 0.713151 0.28522 0.641833 0.14353 0.713149v0.641828m-272.279 182.351 272.279-157.177m0-25.174v25.174m-51.703-58.1926 48.993 28.3118m-219.007 96.4885v0l-0.14353-0.713155 0.21388-0.713146 0.21408-0.285263m108.612-61.1878v0l-0.14352-0.713146 0.21387-0.641832 0.21387-0.285258m-103.834 72.5268-0.21388 0.14252m0 0-16.3312-9.48482m0 0 0.14353-0.07132m125.3-53.4859-0.21405 0.142515m0 0-16.331-9.4135m0 0 0.21387-0.142715m123.802-2.28211v0.570515l-0.14352 0.499211-0.28523 0.356576-0.3566 0.285258m-52.8439-60.1181 0.42774-0.142721h0.42795l0.49928 0.07135 0.5705 0.285275m-169.015 125.157-0.21387 0.142722m1.99683-0.784463-0.78453 0.213954-0.99843 0.427867m108.969-62.8994-0.21389 0.142726m1.9255-0.713146-0.78455 0.14271-0.92706 0.427878m-82.1543-128.509-0.14352-0.0713m16.0458 40.364-0.0707-0.07138m93.0654-103.121-0.14354-0.0713m16.1171 40.4353-0.14353-0.0713m-145.125-113.961v136.282m11.1252-142.629v136.211m-11.1252 27.9553v177.644m11.1252-186.701v0.78446m0 14.6908v164.808m-1.14114-336.248v0.14274m-15.6178-9.12827v13.0506m-11.3391-6.63225v0.14272m11.0538-6.56094v12.9079m114.888-59.5476v136.211m11.0536-142.629v136.282m-11.0536 27.9553v177.573m11.0536-186.701v0.78445m0 14.6908v164.808m-1.14092-336.177v0.14272m-15.6178-9.19959v13.1219m-11.3391-6.70356v0.14272m11.0538-6.56093v12.9792m-212.66 426.104 90.9974-52.5588m30.3086-17.472 78.6599-45.4273m30.2374-17.472 42.0756-24.2469m-223.286 214.3 0.42774-0.28529m-49.4209-28.0266 22.6781-13.0506m81.4411-47.0676 0.99843-0.570505m107.899-62.2576 0.99841-0.641831m-214.514 97.7009 0.4991-0.285258m-0.4991 25.3879 22.25-12.8366m81.4413-46.9962 1.14096-0.641832m107.828-62.2575 1.14113-0.641832" style="fill:none;stroke-linecap:round;stroke-linejoin:round;stroke-miterlimit:10;stroke-width:.79375;stroke:#e7804b"/>
  </g>
</svg>
