<?xml version="1.0" encoding="UTF-8"?>
<svg width="1e3" height="1e3" version="1.1" viewBox="0 0 264.58 264.58" xmlns="http://www.w3.org/2000/svg" xmlns:xlink="http://www.w3.org/1999/xlink">
  <defs>
    <linearGradient id="linearGradient2105" x1="-155.73" x2="-155.73" y1="24.377" y2="277.58" gradientTransform="matrix(.96041 0 0 .96041 280.4 15.234)" gradientUnits="userSpaceOnUse">
      <stop style="stop-color:#316eae" offset="0"/>
      <stop style="stop-color:#2b3848" offset="1"/>
    </linearGradient>
  </defs>
  <g transform="translate(0 -32.417)">
    <rect x="-5.0863e-6" y="32.417" width="264.58" height="264.58" style="fill:#2b3848"/>
    <rect x="5.2379" y="37.655" width="254.11" height="254.11" style="fill:url(#linearGradient2105)"/>
    <path d="m64.116 175.91v7.1897m136.35 0v-7.1897m-1.2911-8.7087-0.30376 0.45569-0.30377 0.48099-0.35443 0.45569-0.37976 0.45569-0.40503 0.45568-0.43035 0.43038-0.45569 0.45568-0.48102 0.45569m2.1518-13.822 0.25317 2.9873 0.25311 2.6835 0.30383 2.3797 0.27844 2.1518 0.25318 1.8987 0.30376 2.0253 0.22784 1.6962 0.20259 1.3417 0.10125 1.0126 0.051 0.65822v0.27847l-0.10125-0.1519-0.15192-0.60757-0.17717-0.86075-0.20259-1.2152-0.22785-1.6202-0.22784-2.0253-0.17718-2.4556m-10.278-17.063 1.5443 0.81011 1.4176 0.81011 1.3417 0.83543 1.2152 0.86073 1.1139 0.86075 1.0126 0.88605 0.88604 0.91138 0.78478 0.91137m-52.733-16.506 2.7594 0.20253 2.7594 0.22784 2.7088 0.27848 2.6835 0.32911 2.6329 0.35442 2.5822 0.37973 2.5316 0.43037 2.481 0.45569m-72.302 0.75948 2.3797-0.50632 2.4556-0.481 2.5063-0.45569 2.5822-0.40505 2.6075-0.35443 2.6582-0.35442 2.6835-0.27847 2.7341-0.27848m-49.518 17.595 0.60758-0.93669 0.70885-0.91137 0.83543-0.91137 0.962-0.88606 1.038-0.88606 1.1899-0.86073 1.2658-0.83543 1.3924-0.83542m-7.0631 17.24-0.22784 2.3291-0.27847 1.924-0.27848 1.5443-0.27847 1.1898-0.27848 0.88605-0.27847 0.73418-0.25316 0.32909-0.17722-0.0507-0.12657-0.45569-0.05066-0.81011 0.02533-1.2152 0.07595-1.6455 0.17721-2.0506 0.1519-1.9746 0.20252-2.2784 0.22784-2.6075 0.22784-2.8607 0.20253-3.1645m10.253 17.038-1.5189-0.78479-1.443-0.83543-1.3417-0.83542-1.2152-0.83543-1.1139-0.88605-1.0126-0.88606-0.88606-0.88606-0.78479-0.91137m31.594 13.848-0.91137 2.6329-1.1139 2.2278-1.2405 1.8228-1.3417 1.443-1.3671 1.0886-1.7468 0.88606-1.7468 0.43037-1.6708-0.0253-1.6202-0.40505-1.5443-0.78479-1.4683-1.1645-1.3924-1.519-1.2658-1.8987-0.96201-1.7721-0.86074-2.0506-0.7848-2.3291-0.68353-2.6329-0.55695-2.9366m43.442 9.6454-2.7848-0.20252-2.7341-0.22784-2.7341-0.27848-2.6582-0.32911-2.6582-0.35442-2.5822-0.37974-2.5316-0.43037-2.481-0.45568m51.695 2.329-0.96201 2.7594-1.1645 2.3797-1.2911 2.0759-1.3924 1.7468-1.4936 1.4936-1.9746 1.4683-2.0506 1.0886-2.1265 0.70885-2.1518 0.32911-2.2278-0.076-2.2278-0.48099-2.2278-0.91137-2.1772-1.3924-1.6708-1.4683-1.6202-1.8228-1.443-2.1518-1.2911-2.5316-1.038-2.886m51.138-3.4176-2.3797 0.50633-2.4556 0.481-2.5063 0.43037-2.5569 0.40505-2.6328 0.37974-2.6582 0.32911-2.6835 0.30378-2.7341 0.25316m41.543-10.506-0.55694 3.1139-0.68353 2.8101-0.78478 2.5316-0.91138 2.1772-0.98736 1.8734-1.3164 1.924-1.4177 1.4683-1.443 1.038-1.519 0.60758-1.519 0.25316-1.5443-0.15189-1.5443-0.55696-1.519-0.962-1.1898-1.0886-1.1392-1.3671-1.0633-1.7215-0.962-2.0506-0.83543-2.481m25.822-10.835-0.53161 0.43038-0.53167 0.43036-0.58228 0.45569-0.58221 0.43037-0.63293 0.40506-0.6582 0.43037-0.6582 0.40505-0.70886 0.43037m4.886 3.5442-0.91137 0.98733-0.9367 1.3671-0.91137 1.6455-0.88605 1.8734-0.83544 2.0759-0.75946 2.2278-0.68353 2.3797-0.6076 2.5822-0.50628 2.7594m0 0-1.6202 0.75947-1.7215 0.75949-1.7974 0.73415-1.8987 0.70885-2 0.65821-2.0759 0.65822-2.1519 0.60758-2.2278 0.60758m-27.847 4.1771 1.0126-2.8101 1.2152-2.4556 1.3671-2.1518 1.4683-1.848 1.5443-1.5696 1.9746-1.5696 2.0253-1.1898 2.0253-0.81011 2.0253-0.481 1.9746-0.12658 1.9493 0.22784 1.8734 0.60758 1.7974 1.0126 1.3417 1.1139 1.2658 1.4177 1.1645 1.7721 1.0126 2.1518 0.8101 2.5316m-27.847 4.1771-2.7848 0.17722-2.8101 0.12658-2.8354 0.0759-2.8354 0.0507-2.8354 0.0253-2.8354-0.0253-2.8354-0.0759-2.8354-0.10126m-28.582-3.6202 0.65821-1.9746 0.70885-1.6962 0.81011-1.4683 0.88606-1.2658 0.96201-1.1392 1.038-0.962 1.1392-0.83543 1.2658-0.68353 1.3924-0.55695 1.5696-0.35442 1.7974-0.12658 1.8734 0.1519 2.2531 0.55694 2.0506 0.88606 1.7974 1.0633 1.6455 1.2658 1.4683 1.4177 1.3417 1.5696 1.1898 1.6962 1.0126 1.7974 0.91137 1.9746 0.81011 2.3038m-28.582-3.6202-2.3291-0.53164-2.2531-0.58226-2.2025-0.60759-2.1012-0.6329-2.0253-0.65821-1.9493-0.68353-1.8481-0.70885-1.7721-0.75947m-12.582-9.2656 0.22784-2.405 0.25316-1.9746 0.35442-1.5949 0.37974-1.2152 0.45569-0.88607 0.65821-0.70883 0.70885-0.27849 0.8101 0.12658 0.86074 0.48102 0.93669 0.83541 0.98732 1.2152 1.038 1.5696 1.0633 1.9746 0.86074 1.848 0.83543 2.1265 0.8101 2.4303 0.73416 2.7088 0.60758 3.0126m-12.582-9.2656-0.481-0.93669-0.40505-0.93669-0.25316-0.9367-0.15189-0.96199-0.02533-0.70885m136.35 0-0.0251 0.22784-0.0759 0.962-0.2025 0.93669-0.32918 0.93669m0 0-0.12651-2.2278-0.20258-1.8987-0.22785-1.5949-0.30377-1.2911-0.37976-0.98733-0.45568-0.65821-0.58228-0.30378-0.70879 0.0759-0.78478 0.53163m-9.2656-8.1264 0.93671-0.88607 0.78478-0.88606 0.68353-0.91137 0.53161-0.91137 0.4051-0.93669 0.27843-0.91137 0.12659-0.93668v-0.9367l-0.12659-0.93669-0.25317-0.91137-0.40503-0.93669-0.5316-0.91137-0.65827-0.91137-0.78479-0.88606-0.91137-0.88605-1.038-0.86074-1.1645-0.83543-1.2911-0.83542-1.3924-0.81011-1.519-0.78479-1.6455-0.75948-1.7215-0.70885-1.8481-0.70884-1.924-0.68353-2.0506-0.6329-2.1012-0.60758-2.2278-0.58227-2.2784-0.53163-2.3544-0.481-2.4303-0.481-2.5063-0.40506-2.5316-0.37974-2.6075-0.35442-2.6582-0.30379-2.6835-0.25316-2.7341-0.20252-2.7341-0.17721-2.7848-0.12658-2.7847-0.076-2.7848-0.0253h-2.7848l-2.8101 0.0506-2.7594 0.10127-2.7847 0.15189-2.7341 0.17721-2.7088 0.25316-2.6582 0.25316-2.6328 0.32911-2.5822 0.35442-2.5316 0.40505-2.4556 0.43038-2.405 0.481-2.3291 0.50632-2.2531 0.55695-2.1772 0.58226-2.0759 0.6329-2 0.65822-1.8987 0.68353-1.7974 0.70884-1.6708 0.73416-1.5949 0.78479-1.4683 0.78479-1.3417 0.81011-1.2405 0.83543-1.1139 0.86074-0.98732 0.86074-0.86074 0.88606-0.73416 0.91137-0.60758 0.91137-0.45569 0.91137-0.35442 0.9367-0.20253 0.91137-0.07595 0.93668 0.07595 0.93669 0.17722 0.93669 0.3291 0.91137 0.481 0.91137 0.58226 0.91137 0.73416 0.91138 0.83543 0.88605 0.98732 0.86075 1.1139 0.86073 1.2152 0.83543 1.3417 0.83542 1.4683 0.7848 1.5696 0.75947 1.6962 0.75948 1.7721 0.70884 1.8987 0.68353 1.9746 0.65822 2.0759 0.6329 2.1772 0.58226 2.2531 0.55696 2.3038 0.50631 2.405 0.481 2.4556 0.45569 2.5316 0.40505 2.5822 0.35442 2.6328 0.32911 2.6582 0.25316 2.7088 0.25316 2.7341 0.17721 2.7594 0.15189 2.7848 0.10127 2.7847 0.0507 2.7848 0.0253 2.8101-0.0253 2.7847-0.10126 2.7594-0.10127 2.7594-0.17721 2.7341-0.20252 2.6835-0.25317 2.6582-0.30379 2.6075-0.3291 2.5569-0.37974 2.481-0.40506 2.4303-0.481 2.3797-0.481 2.2784-0.53163 2.2278-0.58227 2.1266-0.60758 2.0253-0.6329 1.9493-0.65822 1.8481-0.70883 1.7468-0.73417 1.6202-0.75947 1.5443-0.75949 1.3924-0.8101 1.2911-0.83542 1.1899-0.83543 1.038-0.86074m4.3796 4.5822-2.3797 0.50632-2.2784 0.53164-2.2024 0.58226-2.1012 0.6329-2.0253 0.6329-1.924 0.68353-1.8228 0.70884-1.7215 0.75948-1.5949 0.75948-1.4936 0.8101-1.3924 0.81011m-20.607 3.0885-2.7594-0.1772-2.7594-0.1519-2.7847-0.12658-2.8101-0.0506-2.81-0.0253-2.8101 0.0253-2.8101 0.076-2.7847 0.12658-2.7594 0.17721-2.7341 0.20253-2.7088 0.25315m-21.164-2.6582-1.519-0.7848-1.6455-0.75948-1.7468-0.73415-1.8481-0.70886-1.9493-0.68353-2.0506-0.63289-2.1518-0.60759-2.2278-0.58226-2.3037-0.53163-2.3797-0.50632-2.4556-0.45569m-9.3162-6.8606 0.60758-0.91137 0.45569-0.93669 0.32911-0.93669 0.17721-0.93668 0.05066-0.93669-0.07595-0.93669-0.22784-0.91138-0.37974-0.93667-0.481-0.9367-0.63289-0.91137-0.75948-0.88606m7.9998-7.0631 2.3544-0.50632 2.2784-0.55695 2.2025-0.58227 2.1265-0.60758 2.0253-0.65821 1.924-0.68353 1.8227-0.70885 1.6962-0.73416 1.6202-0.75947 1.4936-0.81011 1.3671-0.81011m20.607-3.1139 2.7594 0.20253 2.7594 0.1519 2.8101 0.10126 2.7848 0.0759h2.8101l2.8101-0.0253 2.8101-0.076 2.7847-0.10126 2.7848-0.17721 2.7341-0.20253 2.7088-0.25316m21.139 2.6582 1.5443 0.7848 1.6202 0.75947 1.7468 0.73416 1.8481 0.70884 1.9746 0.68353 2.0253 0.6329 2.1518 0.60758 2.2278 0.58227 2.3037 0.53164 2.3797 0.48099 2.4557 0.45569m9.3162 6.8859-0.60761 0.91137-0.45568 0.93669-0.30377 0.91137-0.2025 0.93669-0.0502 0.93669 0.10126 0.93668 0.22784 0.93669 0.35443 0.93669 0.50629 0.91137 0.6076 0.91138 0.78478 0.91137m-17.189 5.7467v0l-1.519-0.7848-1.6455-0.75947-1.7215-0.73416-1.8481-0.68353-1.924-0.68353-2.0506-0.6329-2.1012-0.60758-2.2278-0.58226-2.2784-0.53164-2.3544-0.50632-2.4303-0.45568-2.5063-0.43038-2.5316-0.37973-2.6075-0.32911-2.6582-0.30379-2.6835-0.25316-2.7341-0.20253-2.7341-0.17721-2.7848-0.12658-2.7848-0.0759-2.7847-0.0253h-2.7848l-2.8101 0.0507-2.7594 0.10126-2.7848 0.1519-2.7341 0.17721-2.7088 0.22784-2.6582 0.27848-2.6328 0.32911-2.5822 0.35442-2.5316 0.37973-2.4556 0.45569-2.405 0.481-2.3291 0.50632-2.2531 0.55695-2.1772 0.58227-2.0759 0.63289-2 0.6329-1.8987 0.68353-1.7974 0.73416-1.6709 0.73416-1.5949 0.75948-0.86074 0.45569m63.113 32.43 2.2278-0.58227 2.2784-0.53163 2.3544-0.50632 2.4556-0.481 2.5063-0.43037 2.5569-0.37974 2.6075-0.3291 2.6582-0.3038 2.7088-0.25315 2.7341-0.22785 2.7594-0.15189m-79.036 0.81011 2.8101 0.12658 2.7594 0.15189 2.7594 0.20253 2.7088 0.22784 2.6582 0.30379 2.6328 0.32911 2.5822 0.37974 2.5316 0.40505 2.4556 0.45568 2.3797 0.48101 2.3037 0.55695m-57.644-18.05 1.7468 0.73415 1.6455 0.75948 1.5189 0.7848 1.3924 0.8101 1.2658 0.83543 1.1645 0.86074 1.038 0.86074 0.88606 0.88605 0.78479 0.91138 0.63289 0.91137 0.50632 0.91137m111.01-1.1392 0.3291-0.93668 0.48102-0.93669 0.58227-0.91137 0.7342-0.91137 0.8607-0.88606 1.0126-0.86074 1.1139-0.86074 1.2405-0.86075 1.3671-0.81011 1.4936-0.78479 1.5949-0.78479" style="fill:none;stroke-linecap:round;stroke-linejoin:round;stroke-miterlimit:10;stroke:#f8d041"/>
  </g>
</svg>
